<?xml version="1.0" encoding="UTF-8"?>
<svg version="1.1" xmlns="http://www.w3.org/2000/svg" width="360" height="360">
<path d="M0 0 C18.85534882 14.48884699 30.93703024 34.108357 34.73828125 57.58984375 C37.44347602 79.25492536 31.85224504 102.32072916 19.1875 120.1875 C3.81346427 139.159204 -16.28474063 152.11384594 -40.8125 155.1875 C-65.951071 156.80503329 -88.51920917 150.89909867 -107.8125 134.1875 C-120.60281135 122.65256771 -120.60281135 122.65256771 -123.8125 115.1875 C-123.45703125 112.9296875 -123.45703125 112.9296875 -122.8125 111.1875 C-117.6558355 109.55907963 -114.2141294 110.69369772 -109.4453125 112.7578125 C-105.72613389 114.77742581 -102.67199331 117.38274975 -99.44140625 120.09765625 C-91.09257417 126.73454357 -79.82266738 133.67990462 -68.8125 133.1875 C-69.40417969 132.93355469 -69.99585938 132.67960938 -70.60546875 132.41796875 C-74.84890294 130.56968665 -78.91143529 128.70431595 -82.8125 126.1875 C-83.1425 126.8475 -83.4725 127.5075 -83.8125 128.1875 C-89.55532607 125.15656402 -92.79759197 120.85162641 -95.8125 115.1875 C-96.47265625 112.14453125 -96.47265625 112.14453125 -96.875 109 C-97.28174897 104.59084889 -97.28174897 104.59084889 -99.8125 101.1875 C-100.01694031 98.5808861 -100.09450553 96.10587909 -100.0625 93.5 C-100.05863281 92.74920166 -100.05476563 91.99840332 -100.05078125 91.22485352 C-99.93824512 83.77793163 -99.00997345 76.53271662 -97.8125 69.1875 C-98.555 69.105 -99.2975 69.0225 -100.0625 68.9375 C-106.36560277 67.21847197 -110.51285908 60.02564653 -113.6875 54.625 C-117.34223914 47.52471555 -118.14254524 41.10858568 -117.8125 33.1875 C-115.45768377 32.36751935 -114.21091683 32.05365684 -111.8125 32.859375 C-104.29525862 36.91163793 -104.29525862 36.91163793 -101.8125 39.1875 C-101.8125 39.8475 -101.8125 40.5075 -101.8125 41.1875 C-100.8225 41.5175 -99.8325 41.8475 -98.8125 42.1875 C-97.64453125 44.03515625 -97.64453125 44.03515625 -96.625 46.25 C-96.28082031 46.98347656 -95.93664062 47.71695313 -95.58203125 48.47265625 C-95.32808594 49.03855469 -95.07414062 49.60445313 -94.8125 50.1875 C-93.05781704 46.91525339 -91.89567336 43.56873738 -90.6875 40.0625 C-85.55014836 26.62403179 -75.65243618 17.78389162 -63.03515625 11.44921875 C-55.97822239 8.68632222 -49.10407005 7.82201656 -41.5625 7.875 C-40.73693604 7.87918945 -39.91137207 7.88337891 -39.06079102 7.88769531 C-28.25955436 8.08520844 -18.64721616 10.81404835 -8.8125 15.1875 C-9.046875 17.03125 -9.046875 17.03125 -9.8125 19.1875 C-11.703125 20.53125 -11.703125 20.53125 -14.0625 21.6875 C-19.93323669 24.60316788 -24.01194595 28.16679615 -28.0625 33.3125 C-39.49434565 47.47968826 -51.70493011 60.83278022 -70.8125 63.1875 C-72.93661996 63.25210219 -75.06252905 63.27361079 -77.1875 63.25 C-78.77691406 63.23646484 -78.77691406 63.23646484 -80.3984375 63.22265625 C-81.59339844 63.20525391 -81.59339844 63.20525391 -82.8125 63.1875 C-83.4725 61.8675 -84.1325 60.5475 -84.8125 59.1875 C-85.32030894 61.39405075 -85.81841365 63.60283605 -86.3125 65.8125 C-86.5909375 67.04226562 -86.869375 68.27203125 -87.15625 69.5390625 C-87.75341621 72.85902228 -87.93659534 75.82658451 -87.8125 79.1875 C-87.10867187 78.78917969 -86.40484375 78.39085937 -85.6796875 77.98046875 C-71.24451492 70.23522602 -55.54289454 67.66767398 -39.61328125 72.140625 C-34.09168378 74.2044857 -29.668367 77.16788003 -25.6875 81.5 C-24.10488457 86.36089026 -24.60595387 90.70559333 -26.83984375 95.30078125 C-32.57809261 103.86657303 -42.21673472 108.81069397 -51.93359375 111.53515625 C-61.68675061 113.17541526 -73.52248987 114.01369857 -82.8125 110.1875 C-78.9722992 118.83331521 -74.45831521 123.3472992 -65.8125 127.1875 C-66.40675781 126.90390625 -67.00101562 126.6203125 -67.61328125 126.328125 C-70.82483634 124.66245167 -73.22620864 122.71631822 -75.8125 120.1875 C-76.48828125 117.015625 -76.48828125 117.015625 -76.8125 114.1875 C-75.49378906 114.17332031 -74.17507812 114.15914062 -72.81640625 114.14453125 C-62.2749975 113.90966369 -52.87105029 112.92099522 -42.8671875 109.5390625 C-41.51601504 109.08737324 -40.16442237 108.63693978 -38.8125 108.1875 C-37.60907959 107.77407349 -37.60907959 107.77407349 -36.38134766 107.35229492 C-27.45323855 104.55990723 -18.92485581 105.04244716 -9.66796875 105.39257812 C-8.47042969 105.41900391 -7.27289063 105.44542969 -6.0390625 105.47265625 C-4.96221191 105.51269775 -3.88536133 105.55273926 -2.77587891 105.59399414 C0.94026416 105.08424145 2.51175257 103.75598178 5.1875 101.1875 C12.98083785 90.46717121 15.37368354 80.59701147 15.4375 67.5625 C15.458125 66.53253906 15.47875 65.50257813 15.5 64.44140625 C15.57509689 49.51589899 10.23083422 35.03664197 1.1875 23.1875 C0.63707031 22.44886719 0.08664063 21.71023437 -0.48046875 20.94921875 C-12.28718087 6.37334174 -29.74096494 0.27557992 -47.8125 -1.8125 C-62.25943484 -2.94739722 -75.80380573 -0.10034933 -88.8125 6.1875 C-89.58980469 6.55617188 -90.36710937 6.92484375 -91.16796875 7.3046875 C-107.9373342 15.91197242 -119.48972253 30.70273557 -125.54882812 48.32958984 C-130.46587192 64.49345396 -130.1858952 81.47407948 -126.46875 97.83984375 C-125.83867923 101.05395477 -125.69288895 103.92311497 -125.8125 107.1875 C-128.54821253 106.18020836 -129.61798967 105.55363709 -131.0078125 102.9375 C-139.43865222 77.99921782 -138.14818878 53.88882589 -127.125 30.0625 C-115.87445188 8.65480742 -97.71644555 -5.92029853 -74.85302734 -13.23144531 C-48.78177528 -20.65541994 -22.00755374 -15.18084798 0 0 Z M-72.8125 36.1875 C-73.4725 37.5075 -74.1325 38.8275 -74.8125 40.1875 C-73.8225 39.5275 -72.8325 38.8675 -71.8125 38.1875 C-72.1425 37.5275 -72.4725 36.8675 -72.8125 36.1875 Z M-76.8125 41.1875 C-76.8125 44.1875 -76.8125 44.1875 -76.8125 44.1875 Z M-78.8125 44.1875 C-77.8125 46.1875 -77.8125 46.1875 -77.8125 46.1875 Z M-80.8125 48.1875 C-80.8125 51.1875 -80.8125 51.1875 -80.8125 51.1875 Z M-82.8125 51.1875 C-81.8125 54.1875 -81.8125 54.1875 -81.8125 54.1875 Z M-83.8125 54.1875 C-82.8125 56.1875 -82.8125 56.1875 -82.8125 56.1875 Z M-91.8125 91.1875 C-91.4825 91.8475 -91.1525 92.5075 -90.8125 93.1875 C-89.74 92.548125 -88.6675 91.90875 -87.5625 91.25 C-82.20171335 88.52139816 -76.73602087 88.3849507 -70.8125 88.1875 C-70.8125 87.8575 -70.8125 87.5275 -70.8125 87.1875 C-78.98617067 86.7389449 -84.78813746 86.78005684 -91.8125 91.1875 Z M-70.8125 88.1875 C-66.8125 89.1875 -66.8125 89.1875 -66.8125 89.1875 Z M-50.8125 130.1875 C-50.4825 130.8475 -50.1525 131.5075 -49.8125 132.1875 C-47.8325 131.8575 -45.8525 131.5275 -43.8125 131.1875 C-43.8125 130.8575 -43.8125 130.5275 -43.8125 130.1875 C-46.1225 130.1875 -48.4325 130.1875 -50.8125 130.1875 Z " fill="#A36F1E" transform="translate(232.8125,108.8125)"/>
<path d="M0 0 C0.82556396 0.00418945 1.65112793 0.00837891 2.50170898 0.01269531 C13.30294564 0.21020844 22.91528384 2.93904835 32.75 7.3125 C32.515625 9.15625 32.515625 9.15625 31.75 11.3125 C29.859375 12.65625 29.859375 12.65625 27.5 13.8125 C21.62926331 16.72816788 17.55055405 20.29179615 13.5 25.4375 C2.06815435 39.60468826 -10.14243011 52.95778022 -29.25 55.3125 C-31.37411996 55.37710219 -33.50002905 55.39861079 -35.625 55.375 C-37.21441406 55.36146484 -37.21441406 55.36146484 -38.8359375 55.34765625 C-39.63257813 55.33605469 -40.42921875 55.32445312 -41.25 55.3125 C-41.91 53.9925 -42.57 52.6725 -43.25 51.3125 C-43.75780894 53.51905075 -44.25591365 55.72783605 -44.75 57.9375 C-45.0284375 59.16726562 -45.306875 60.39703125 -45.59375 61.6640625 C-46.19091621 64.98402228 -46.37409534 67.95158451 -46.25 71.3125 C-45.54617187 70.91417969 -44.84234375 70.51585937 -44.1171875 70.10546875 C-29.68201492 62.36022602 -13.98039454 59.79267398 1.94921875 64.265625 C7.47081622 66.3294857 11.894133 69.29288003 15.875 73.625 C17.45761543 78.48589026 16.95654613 82.83059333 14.72265625 87.42578125 C8.98440739 95.99157303 -0.65423472 100.93569397 -10.37109375 103.66015625 C-20.12425061 105.30041526 -31.95998987 106.13869857 -41.25 102.3125 C-38.91956435 107.55923502 -36.62566669 111.45774601 -32.25 115.3125 C-31.425 116.17875 -30.6 117.045 -29.75 117.9375 C-25.20896459 121.74572282 -18.91304114 122.279037 -13.25 123.3125 C-13.58 123.9725 -13.91 124.6325 -14.25 125.3125 C-33.78268095 124.05659158 -33.78268095 124.05659158 -41.25 118.3125 C-41.58 118.9725 -41.91 119.6325 -42.25 120.3125 C-47.99282607 117.28156402 -51.23509197 112.97662641 -54.25 107.3125 C-54.91015625 104.26953125 -54.91015625 104.26953125 -55.3125 101.125 C-55.71924897 96.71584889 -55.71924897 96.71584889 -58.25 93.3125 C-58.45444031 90.7058861 -58.53200553 88.23087909 -58.5 85.625 C-58.49613281 84.87420166 -58.49226563 84.12340332 -58.48828125 83.34985352 C-58.37574512 75.90293163 -57.44747345 68.65771662 -56.25 61.3125 C-56.9925 61.23 -57.735 61.1475 -58.5 61.0625 C-64.80310277 59.34347197 -68.95035908 52.15064653 -72.125 46.75 C-75.77973914 39.64971555 -76.58004524 33.23358568 -76.25 25.3125 C-73.89518377 24.49251935 -72.64841683 24.17865684 -70.25 24.984375 C-62.73275862 29.03663793 -62.73275862 29.03663793 -60.25 31.3125 C-60.25 31.9725 -60.25 32.6325 -60.25 33.3125 C-58.765 33.8075 -58.765 33.8075 -57.25 34.3125 C-56.08203125 36.16015625 -56.08203125 36.16015625 -55.0625 38.375 C-54.71832031 39.10847656 -54.37414062 39.84195313 -54.01953125 40.59765625 C-53.76558594 41.16355469 -53.51164062 41.72945312 -53.25 42.3125 C-51.49531704 39.04025339 -50.33317336 35.69373738 -49.125 32.1875 C-43.98764836 18.74903179 -34.08993618 9.90889162 -21.47265625 3.57421875 C-14.41572239 0.81132222 -7.54157005 -0.05298344 0 0 Z M-31.25 28.3125 C-31.91 29.6325 -32.57 30.9525 -33.25 32.3125 C-32.26 31.6525 -31.27 30.9925 -30.25 30.3125 C-30.58 29.6525 -30.91 28.9925 -31.25 28.3125 Z M-35.25 33.3125 C-35.25 36.3125 -35.25 36.3125 -35.25 36.3125 Z M-37.25 36.3125 C-36.25 38.3125 -36.25 38.3125 -36.25 38.3125 Z M-39.25 40.3125 C-39.25 43.3125 -39.25 43.3125 -39.25 43.3125 Z M-41.25 43.3125 C-40.25 46.3125 -40.25 46.3125 -40.25 46.3125 Z M-42.25 46.3125 C-41.25 48.3125 -41.25 48.3125 -41.25 48.3125 Z M-50.25 83.3125 C-49.92 83.9725 -49.59 84.6325 -49.25 85.3125 C-48.1775 84.673125 -47.105 84.03375 -46 83.375 C-40.63921335 80.64639816 -35.17352087 80.5099507 -29.25 80.3125 C-29.25 79.9825 -29.25 79.6525 -29.25 79.3125 C-37.42367067 78.8639449 -43.22563746 78.90505684 -50.25 83.3125 Z M-29.25 80.3125 C-25.25 81.3125 -25.25 81.3125 -25.25 81.3125 Z " fill="#66AA32" transform="translate(191.25,116.6875)"/>
<path d="M0 0 C0.33 0.66 0.66 1.32 1 2 C2.32 2 3.64 2 5 2 C5.66 3.98 6.32 5.96 7 8 C8.98 7.34 10.96 6.68 13 6 C13.33 6.66 13.66 7.32 14 8 C14.66 7.01 15.32 6.02 16 5 C16.13810221 12.04321257 15.5988915 18.98441385 15 26 C15.70382813 25.60167969 16.40765625 25.20335937 17.1328125 24.79296875 C31.56798508 17.04772602 47.26960546 14.48017398 63.19921875 18.953125 C68.72081622 21.0169857 73.144133 23.98038003 77.125 28.3125 C78.70761543 33.17339026 78.20654613 37.51809333 75.97265625 42.11328125 C70.23440739 50.67907303 60.59576528 55.62319397 50.87890625 58.34765625 C41.12574939 59.98791526 29.29001013 60.82619857 20 57 C22.33043565 62.24673502 24.62433331 66.14524601 29 70 C29.825 70.86625 30.65 71.7325 31.5 72.625 C36.04103541 76.43322282 42.33695886 76.966537 48 78 C47.67 78.66 47.34 79.32 47 80 C27.46731905 78.74409158 27.46731905 78.74409158 20 73 C19.67 73.66 19.34 74.32 19 75 C13.25717393 71.96906402 10.01490803 67.66412641 7 62 C6.33984375 58.95703125 6.33984375 58.95703125 5.9375 55.8125 C5.53075103 51.40334889 5.53075103 51.40334889 3 48 C2.79555969 45.3933861 2.71799447 42.91837909 2.75 40.3125 C2.75386719 39.56170166 2.75773438 38.81090332 2.76171875 38.03735352 C2.87425488 30.59043163 3.80252655 23.34521662 5 16 C4.25492188 15.91492188 3.50984375 15.82984375 2.7421875 15.7421875 C-0.55538266 14.84968276 -1.67803197 13.69912992 -3.875 11.125 C-4.49117188 10.42632812 -5.10734375 9.72765625 -5.7421875 9.0078125 C-6.15726562 8.34523437 -6.57234375 7.68265625 -7 7 C-6.67 6.01 -6.34 5.02 -6 4 C-4.515 4.99 -4.515 4.99 -3 6 C-2.01 4.02 -1.02 2.04 0 0 Z M11 38 C11.33 38.66 11.66 39.32 12 40 C13.0725 39.360625 14.145 38.72125 15.25 38.0625 C20.61078665 35.33389816 26.07647913 35.1974507 32 35 C32 34.67 32 34.34 32 34 C23.82632933 33.5514449 18.02436254 33.59255684 11 38 Z M32 35 C36 36 36 36 36 36 Z " fill="#1C702F" transform="translate(130,162)"/>
<path d="M0 0 C8.15133376 6.2456675 15.61077118 13.53395528 21.1875 22.1875 C20.8575 22.8475 20.5275 23.5075 20.1875 24.1875 C19.5275 23.5275 18.8675 22.8675 18.1875 22.1875 C17.89875 23.05375 17.61 23.92 17.3125 24.8125 C16.27083333 27.9375 15.22916667 31.0625 14.1875 34.1875 C13.1975 34.1875 12.2075 34.1875 11.1875 34.1875 C10.8575 32.8675 10.5275 31.5475 10.1875 30.1875 C10.8475 29.8575 11.5075 29.5275 12.1875 29.1875 C11.5275 29.1875 10.8675 29.1875 10.1875 29.1875 C9.5275 29.1875 8.8675 29.1875 8.1875 29.1875 C8.53683594 29.82816406 8.88617188 30.46882813 9.24609375 31.12890625 C11.93326954 36.23682398 13.8107456 40.41059915 14.1875 46.1875 C11.79948171 43.79948171 11.14388934 41.77367618 9.9375 38.625 C7.6039479 32.92378524 4.92000809 28.07806549 1.1875 23.1875 C0.63707031 22.44886719 0.08664063 21.71023437 -0.48046875 20.94921875 C-12.28718087 6.37334174 -29.74096494 0.27557992 -47.8125 -1.8125 C-62.25943484 -2.94739722 -75.80380573 -0.10034933 -88.8125 6.1875 C-89.58980469 6.55617188 -90.36710937 6.92484375 -91.16796875 7.3046875 C-107.9373342 15.91197242 -119.48972253 30.70273557 -125.54882812 48.32958984 C-130.46587192 64.49345396 -130.1858952 81.47407948 -126.46875 97.83984375 C-125.83867923 101.05395477 -125.69288895 103.92311497 -125.8125 107.1875 C-128.54821253 106.18020836 -129.61798967 105.55363709 -131.0078125 102.9375 C-139.43865222 77.99921782 -138.14818878 53.88882589 -127.125 30.0625 C-115.87445188 8.65480742 -97.71644555 -5.92029853 -74.85302734 -13.23144531 C-48.78177528 -20.65541994 -22.00755374 -15.18084798 0 0 Z " fill="#CB9837" transform="translate(232.8125,108.8125)"/>
<path d="M0 0 C5.45022726 4.05011588 8.54765872 7.92159587 11.25 14.125 C11.58717041 14.87056152 11.92434082 15.61612305 12.27172852 16.38427734 C20.15733359 34.33960909 21.17065842 54.14731127 16 73 C14.5625 75.70703125 14.5625 75.70703125 13 78 C12.34451172 79.03833984 12.34451172 79.03833984 11.67578125 80.09765625 C8.23105552 85.06240422 4.95933531 88.43592196 -1 90 C-6.67750215 90.56920973 -11.96645255 90.9961592 -17 88 C-14.97620737 85.37656512 -12.98927431 82.9900294 -10.55859375 80.73046875 C-7.80062299 77.78722972 -6.38104002 75.17413226 -4.75 71.5 C-3.99976563 69.84484375 -3.99976563 69.84484375 -3.234375 68.15625 C2.36314069 53.84361496 0.66447582 31.46892621 -5.08984375 17.3203125 C-5.99384393 15.51231214 -6.98582412 13.74857911 -8 12 C-8 11.34 -8 10.68 -8 10 C-6.35 9.34 -4.7 8.68 -3 8 C-3 9.32 -3 10.64 -3 12 C-3.33 12.33 -3.66 12.66 -4 13 C-3.34 12.34 -2.68 11.68 -2 11 C-0.52877372 8.40371833 0.52350286 5.95428228 1 3 C0.67 2.01 0.34 1.02 0 0 Z " fill="#6E3D0D" transform="translate(249,128)"/>
<path d="M0 0 C0.73863281 0.14824219 1.47726563 0.29648438 2.23828125 0.44921875 C7.244486 2.2137662 11.28345519 5.74706556 15.48193359 8.91625977 C24.75109846 15.82501177 34.83649022 21.83845961 46.6875 22.3125 C45.6975 21.6525 44.7075 20.9925 43.6875 20.3125 C48.9675 20.6425 54.2475 20.9725 59.6875 21.3125 C57.769375 20.879375 55.85125 20.44625 53.875 20 C47.23214286 18.5 47.23214286 18.5 44.6875 15.3125 C46.6675 15.6425 48.6475 15.9725 50.6875 16.3125 C49.800625 15.961875 48.91375 15.61125 48 15.25 C44.04496465 12.93667744 41.86574643 10.31237729 39.6875 6.3125 C39.6875 5.6525 39.6875 4.9925 39.6875 4.3125 C40.28175781 4.28744385 40.87601563 4.2623877 41.48828125 4.23657227 C44.22151007 4.11941112 46.95449367 3.99723727 49.6875 3.875 C50.62207031 3.83568359 51.55664062 3.79636719 52.51953125 3.75585938 C57.95938123 3.50859347 63.29444577 3.06930832 68.6875 2.3125 C67.6875 4.3125 67.6875 4.3125 65.375 5.625 C61.82697602 7.85282901 59.55837322 10.57075357 57.6875 14.3125 C58.574375 13.961875 59.46125 13.61125 60.375 13.25 C63.83896942 12.2696313 65.2845105 12.5065288 68.6875 13.3125 C70.91917185 12.94393136 70.91917185 12.94393136 72.6875 12.3125 C71.6975 13.9625 70.7075 15.6125 69.6875 17.3125 C71.9975 17.6425 74.3075 17.9725 76.6875 18.3125 C76.0275 18.6425 75.3675 18.9725 74.6875 19.3125 C74.1925 20.7975 74.1925 20.7975 73.6875 22.3125 C64.25624496 26.2030604 54.36674407 26.84530557 44.29296875 27.13671875 C40.85337408 27.06159304 40.85337408 27.06159304 38.6875 28.3125 C38.6875 27.6525 38.6875 26.9925 38.6875 26.3125 C38.06875 26.786875 37.45 27.26125 36.8125 27.75 C34.6875 29.3125 34.6875 29.3125 32.6875 30.3125 C32.3575 31.3025 32.0275 32.2925 31.6875 33.3125 C32.76 33.8075 33.8325 34.3025 34.9375 34.8125 C35.54078125 35.0909375 36.1440625 35.369375 36.765625 35.65625 C38.97992836 36.52792924 38.97992836 36.52792924 42.6875 36.3125 C42.6875 36.9725 42.6875 37.6325 42.6875 38.3125 C44.0796875 38.065 44.0796875 38.065 45.5 37.8125 C52.44867364 36.83600615 59.20764651 36.35328893 65.6875 39.3125 C65.6875 39.9725 65.6875 40.6325 65.6875 41.3125 C71.76941154 41.53277044 76.93513888 41.39314125 82.6875 39.3125 C83.0175 38.9825 83.3475 38.6525 83.6875 38.3125 C85.86769479 37.91583773 88.0571463 37.56934763 90.25 37.25 C91.44753906 37.07339844 92.64507812 36.89679688 93.87890625 36.71484375 C95.26916016 36.51568359 95.26916016 36.51568359 96.6875 36.3125 C94.10724265 40.18288603 92.36596746 40.25096969 87.9375 41.4375 C86.72578125 41.77007812 85.5140625 42.10265625 84.265625 42.4453125 C61.8668869 47.87382763 39.47064772 43.68403453 19.6875 32.3125 C9.26201762 25.84683611 -3.33421285 15.8909597 -8.3125 4.3125 C-8.14453125 2.1171875 -8.14453125 2.1171875 -7.3125 0.3125 C-4.16438722 -0.73687093 -3.13669389 -0.67717916 0 0 Z M64.6875 19.3125 C65.0175 19.9725 65.3475 20.6325 65.6875 21.3125 C67.6675 20.9825 69.6475 20.6525 71.6875 20.3125 C71.6875 19.9825 71.6875 19.6525 71.6875 19.3125 C69.3775 19.3125 67.0675 19.3125 64.6875 19.3125 Z " fill="#71410C" transform="translate(117.3125,219.6875)"/>
<path d="M0 0 C6.96426849 0.35714197 12.51607269 4.29690263 17.125 9.3125 C18.70761543 14.17339026 18.20654613 18.51809333 15.97265625 23.11328125 C10.23440739 31.67907303 0.59576528 36.62319397 -9.12109375 39.34765625 C-18.87425061 40.98791526 -30.70998987 41.82619857 -40 38 C-40.33 38.99 -40.66 39.98 -41 41 C-41.33 39.35 -41.66 37.7 -42 36 C-41.01 36 -40.02 36 -39 36 C-40.32 35.67 -41.64 35.34 -43 35 C-43.33 35.66 -43.66 36.32 -44 37 C-48.8 33.55384615 -48.8 33.55384615 -49.8125 30.75 C-49.9053125 29.88375 -49.9053125 29.88375 -50 29 C-49.01 29 -48.02 29 -47 29 C-43.93601846 26.51749296 -43.93601846 26.51749296 -42.625 22.9375 C-42 21 -42 21 -38.9375 19.25 C-37.968125 18.8375 -36.99875 18.425 -36 18 C-38.97 18.33 -41.94 18.66 -45 19 C-44.34 18.34 -43.68 17.68 -43 17 C-44.65 17.33 -46.3 17.66 -48 18 C-44.59798789 14.44335098 -42.52175455 13.82311217 -37.53930664 13.65771484 C-27.86253092 13.51554974 -19.89001399 15.01939672 -11 19 C-10.34 19.66 -9.68 20.32 -9 21 C-5.77260607 21.09724254 -5.77260607 21.09724254 -2.125 20.75 C-0.89007813 20.66234375 0.34484375 20.5746875 1.6171875 20.484375 C4.64301962 20.05111497 6.50122524 19.69684239 9 18 C11.32536063 14.51195905 11.33457898 13.09859246 11 9 C10.0264553 6.25209157 9.38108232 5.22287125 6.8359375 3.734375 C6.02382812 3.40953125 5.21171875 3.0846875 4.375 2.75 C3.55773437 2.41484375 2.74046875 2.0796875 1.8984375 1.734375 C1.27195313 1.49203125 0.64546875 1.2496875 0 1 C0 0.67 0 0.34 0 0 Z M-28 16 C-24 17 -24 17 -24 17 Z " fill="#3D8C33" transform="translate(190,181)"/>
<path d="M0 0 C-0.33 0.99 -0.66 1.98 -1 3 C-1.99 2.67 -2.98 2.34 -4 2 C-4 1.34 -4 0.68 -4 0 C-4.99 0 -5.98 0 -7 0 C-6.01 0.495 -6.01 0.495 -5 1 C-6.34018966 5.02056899 -8.30035097 5.82320463 -11.8125 8.125 C-13.39998047 9.18074219 -13.39998047 9.18074219 -15.01953125 10.2578125 C-17.49092683 11.70242905 -19.1946968 12.65405454 -22 13 C-25.45235046 11.84921651 -27.01118929 9.98321607 -29 7 C-31.51083114 8.25541557 -31.87125446 9.50063488 -33 12 C-34.175625 11.7525 -35.35125 11.505 -36.5625 11.25 C-41.5687588 10.59431301 -43.85787662 12.29168856 -48 15 C-50.4375 15.75 -50.4375 15.75 -52 16 C-52 15.01 -52 14.02 -52 13 C-52.70125 13.721875 -53.4025 14.44375 -54.125 15.1875 C-56.92770745 17.99823813 -59.92262792 20.49516226 -63 23 C-62.690625 22.401875 -62.38125 21.80375 -62.0625 21.1875 C-60.89790296 18.91043228 -60.89790296 18.91043228 -60 16 C-57.9375 14.8125 -57.9375 14.8125 -56 14 C-56 13.34 -56 12.68 -56 12 C-60.18423892 15.50897269 -64.19588166 19.08060535 -68 23 C-68.66 22.34 -69.32 21.68 -70 21 C-70.66 21.66 -71.32 22.32 -72 23 C-72.33 22.34 -72.66 21.68 -73 21 C-74.485 23.475 -74.485 23.475 -76 26 C-76.99 25.67 -77.98 25.34 -79 25 C-75.2477719 12.15583457 -70.31750209 4.92725503 -58.5234375 -1.75 C-40.00998977 -10.9207481 -18.31950176 -8.14659559 0 0 Z " fill="#99CB35" transform="translate(224,124)"/>
<path d="M0 0 C4.57092195 0.55095934 7.94617555 1.77862734 12 3.9375 C15.02200518 5.53900535 17.80876119 6.93973669 21.07421875 7.96875 C31.94218644 11.79938214 41.79816065 23.59721131 48 33 C47.505 33.99 47.505 33.99 47 35 C46.34 34.34 45.68 33.68 45 33 C44.71125 33.86625 44.4225 34.7325 44.125 35.625 C42.5625 40.3125 42.5625 40.3125 41 45 C40.01 45 39.02 45 38 45 C37.505 43.02 37.505 43.02 37 41 C37.66 40.67 38.32 40.34 39 40 C38.34 40 37.68 40 37 40 C36.34 40 35.68 40 35 40 C35.34933594 40.64066406 35.69867188 41.28132813 36.05859375 41.94140625 C38.74576954 47.04932398 40.6232456 51.22309915 41 57 C38.61198171 54.61198171 37.95638934 52.58617618 36.75 49.4375 C34.4164479 43.73628524 31.73250809 38.89056549 28 34 C27.17435547 32.89205078 27.17435547 32.89205078 26.33203125 31.76171875 C16.51970624 19.64799555 2.04749638 12.91241865 -13 10 C-13 9.34 -13 8.68 -13 8 C-21.25 7.67 -29.5 7.34 -38 7 C-38 6.67 -38 6.34 -38 6 C-34.2500163 5.97094076 -30.50006163 5.95318126 -26.75 5.9375 C-25.15478516 5.92493164 -25.15478516 5.92493164 -23.52734375 5.91210938 C-22.50253906 5.90888672 -21.47773438 5.90566406 -20.421875 5.90234375 C-19.00793457 5.89448853 -19.00793457 5.89448853 -17.56542969 5.88647461 C-15.20302814 5.9910156 -13.27156599 6.39626641 -11 7 C-6.34299027 7.30560062 -6.34299027 7.30560062 -2 6 C-1.505 7.485 -1.505 7.485 -1 9 C1.38564077 8.42415568 3.66682784 7.77772405 6 7 C6 6.01 6 5.02 6 4 C4.02 4.33 2.04 4.66 0 5 C0 3.33333333 0 1.66666667 0 0 Z " fill="#AE7E29" transform="translate(206,98)"/>
<path d="M0 0 C0 0.99 0 1.98 0 3 C-0.61875 3.0825 -1.2375 3.165 -1.875 3.25 C-4.15042479 3.79923543 -4.15042479 3.79923543 -5.125 5.875 C-5.558125 6.926875 -5.558125 6.926875 -6 8 C-6.66 8.99 -7.32 9.98 -8 11 C-6.53737408 9.9015258 -5.08004497 8.7959964 -3.625 7.6875 C-2.81289062 7.07261719 -2.00078125 6.45773438 -1.1640625 5.82421875 C1.19779389 4.00519317 1.19779389 4.00519317 3 1 C4.32 1.33 5.64 1.66 7 2 C4.89172965 4.26443852 3.10393424 5.94308363 0.375 7.4375 C-2.5412475 9.35608388 -2.75677037 10.81422407 -4 14 C-6.625 16.3125 -6.625 16.3125 -9 18 C-9 17.01 -9 16.02 -9 15 C-9.598125 15.969375 -10.19625 16.93875 -10.8125 17.9375 C-13 21 -13 21 -16 22 C-17.47694961 25.01137896 -17.47694961 25.01137896 -18.6875 28.5625 C-19.12449219 29.76003906 -19.56148437 30.95757812 -20.01171875 32.19140625 C-20.33785156 33.11824219 -20.66398437 34.04507813 -21 35 C-21.66 34.67 -22.32 34.34 -23 34 C-23.66 34.66 -24.32 35.32 -25 36 C-25.33 35.01 -25.66 34.02 -26 33 C-27.65 33.66 -29.3 34.32 -31 35 C-32.89213369 32.61426621 -34.02391783 30.92824652 -35 28 C-38.33537489 29.11179163 -39.63707344 30.47411298 -42 33 C-42.66 32.34 -43.32 31.68 -44 31 C-44.66 31.33 -45.32 31.66 -46 32 C-51.33222307 23.20793754 -53.42829825 16.27915805 -53 6 C-50.64518377 5.18001935 -49.39841683 4.86615684 -47 5.671875 C-39.48275862 9.72413793 -39.48275862 9.72413793 -37 12 C-37 12.66 -37 13.32 -37 14 C-36.01 14.33 -35.02 14.66 -34 15 C-32.83203125 16.84765625 -32.83203125 16.84765625 -31.8125 19.0625 C-31.46832031 19.79597656 -31.12414062 20.52945313 -30.76953125 21.28515625 C-30.51558594 21.85105469 -30.26164062 22.41695312 -30 23 C-27.62904784 18.56262165 -26.09569007 13.82400563 -24.4140625 9.09375 C-22.9890698 5.97608641 -21.56709914 4.22846053 -19 2 C-19.30921884 3.45903258 -19.62248799 4.91720722 -19.9375 6.375 C-20.11152344 7.18710938 -20.28554687 7.99921875 -20.46484375 8.8359375 C-21 11 -21 11 -22 13 C-21.34 13.33 -20.68 13.66 -20 14 C-19.814375 13.071875 -19.814375 13.071875 -19.625 12.125 C-19 10 -19 10 -17 8 C-14 8 -14 8 -12 9 C-9.9519572 8.9049261 -9.9519572 8.9049261 -8 8 C-6.94978897 6.15028304 -6.94978897 6.15028304 -6 4 C-2.44444444 0 -2.44444444 0 0 0 Z M-12 14 C-12 17 -12 17 -12 17 Z M-14 17 C-13 19 -13 19 -13 19 Z " fill="#76AD36" transform="translate(168,136)"/>
<path d="M0 0 C0.495 0.99 0.495 0.99 1 2 C3.02008024 2.72319347 3.02008024 2.72319347 5.375 3.3125 C8.56437324 4.32660914 9.78682314 4.76098352 12.0625 7.3125 C13.19588556 10.5615386 13.56898813 12.58607125 13 16 C9.57677781 20.05381575 7.60098113 21.86291811 2.3046875 22.31640625 C0.82837715 22.40285686 -0.64820814 22.48470699 -2.125 22.5625 C-2.87910156 22.60568359 -3.63320312 22.64886719 -4.41015625 22.69335938 C-6.27321888 22.7994832 -8.13658524 22.90025001 -10 23 C-10 22.34 -10 21.68 -10 21 C-20.2254021 17.28300757 -30.26052872 14.73581467 -41 13 C-41 12.34 -41 11.68 -41 11 C-34.48302872 8.11749347 -34.48302872 8.11749347 -31.6875 7.4375 C-29.74913067 7.08714408 -29.74913067 7.08714408 -28 5 C-28.33 4.34 -28.66 3.68 -29 3 C-25.25050945 2.23305875 -22.659341 1.93761068 -19 3 C-17.33376361 3.03786901 -15.66602403 3.04627845 -14 3 C-16.31 2.67 -18.62 2.34 -21 2 C-21 1.67 -21 1.34 -21 1 C-10.605 0.505 -10.605 0.505 0 0 Z " fill="#086530" transform="translate(189,180)"/>
<path d="M0 0 C3.0625 1.75 3.0625 1.75 6 4 C6.66128906 4.46792969 7.32257813 4.93585938 8.00390625 5.41796875 C11.96651718 8.25674528 15.15692426 10.97230937 18 15 C15.69 15.66 13.38 16.32 11 17 C11.515625 17.391875 12.03125 17.78375 12.5625 18.1875 C14 20 14 20 13.9375 22.5625 C13 25 13 25 10.94140625 26.15234375 C10.30074219 26.43207031 9.66007812 26.71179688 9 27 C-4.47847714 14.93916204 -4.47847714 14.93916204 -9 9 C-9.42152344 8.46632812 -9.84304687 7.93265625 -10.27734375 7.3828125 C-11.97384543 5.08653749 -13.01602562 3.59294785 -12.9375 0.6875 C-10.34029647 -3.98746636 -4.03851872 -1.28814821 0 0 Z " fill="#603615" transform="translate(122,221)"/>
<path d="M0 0 C0.66 0.33 1.32 0.66 2 1 C1.649375 1.721875 1.29875 2.44375 0.9375 3.1875 C-0.13259129 6.39777387 -0.16342051 7.84214433 1 11 C2.65373496 12.99033641 2.65373496 12.99033641 5 14 C6.671549 13.69208308 8.33805547 13.35613097 10 13 C13.3125 13.9375 13.3125 13.9375 16 15 C13.21176345 16.0326802 12.1322726 16.04509293 9.25 15.0625 C8.5075 14.711875 7.765 14.36125 7 14 C7.33 15.65 7.66 17.3 8 19 C8.66 19 9.32 19 10 19 C11.33203125 20.86328125 11.33203125 20.86328125 12.8125 23.3125 C15.17660293 26.9970409 17.00105437 29.05456699 21 31 C21.60714844 31.72509766 21.60714844 31.72509766 22.2265625 32.46484375 C24.80413573 34.69609106 27.37858369 34.9995075 30.6875 35.6875 C32.45673828 36.06455078 32.45673828 36.06455078 34.26171875 36.44921875 C35.16535156 36.63097656 36.06898438 36.81273437 37 37 C36.505 37.99 36.505 37.99 36 39 C16.46731905 37.74409158 16.46731905 37.74409158 9 32 C8.67 32.66 8.34 33.32 8 34 C2.31108376 30.99751643 -1.10266456 26.68230884 -4 21 C-5.03215046 13.13333977 -4.8825444 6.40833953 0 0 Z " fill="#156138" transform="translate(141,203)"/>
<path d="M0 0 C-0.9075 0.556875 -1.815 1.11375 -2.75 1.6875 C-6.42403253 4.30171545 -8.97923839 6.95847678 -11 11 C-10.113125 10.649375 -9.22625 10.29875 -8.3125 9.9375 C-4.84853058 8.9571313 -3.4029895 9.1940288 0 10 C2.23167185 9.63143136 2.23167185 9.63143136 4 9 C3.01 10.65 2.02 12.3 1 14 C3.31 14.33 5.62 14.66 8 15 C-0.55335125 22.15116252 -12.48124796 21.38798676 -23 21 C-22.67 20.34 -22.34 19.68 -22 19 C-22.99 18.34 -23.98 17.68 -25 17 C-19.72 17.33 -14.44 17.66 -9 18 C-10.918125 17.566875 -12.83625 17.13375 -14.8125 16.6875 C-21.45535714 15.1875 -21.45535714 15.1875 -24 12 C-21.03 12.495 -21.03 12.495 -18 13 C-18.886875 12.649375 -19.77375 12.29875 -20.6875 11.9375 C-24.64253535 9.62417744 -26.82175357 6.99987729 -29 3 C-29 2.34 -29 1.68 -29 1 C-28.39003174 0.97494385 -27.78006348 0.9498877 -27.15161133 0.92407227 C-24.37172102 0.8075942 -21.5921266 0.68510368 -18.8125 0.5625 C-17.85279297 0.52318359 -16.89308594 0.48386719 -15.90429688 0.44335938 C-14.97294922 0.40146484 -14.04160156 0.35957031 -13.08203125 0.31640625 C-12.22843018 0.27974854 -11.3748291 0.24309082 -10.49536133 0.20532227 C-7.95997767 0.05338308 -7.95997767 0.05338308 -5.36987305 -0.58227539 C-3 -1 -3 -1 0 0 Z M-4 16 C-3.67 16.66 -3.34 17.32 -3 18 C-1.02 17.67 0.96 17.34 3 17 C3 16.67 3 16.34 3 16 C0.69 16 -1.62 16 -4 16 Z " fill="#875617" transform="translate(186,223)"/>
<path d="M0 0 C5.64181062 4.14709195 8.69005876 8.25284978 11.5 14.625 C12.03753906 15.75035156 12.03753906 15.75035156 12.5859375 16.8984375 C15.35502789 22.9517979 15.35502789 22.9517979 14 27 C13.67 26.34 13.34 25.68 13 25 C12.13375 25.4640625 12.13375 25.4640625 11.25 25.9375 C9.15705816 26.92583364 7.25464725 27.5168613 5 28 C5.20625 28.928125 5.4125 29.85625 5.625 30.8125 C6 34 6 34 4 37 C4.33 37.66 4.66 38.32 5 39 C3.515 39.495 3.515 39.495 2 40 C1.67 38.02 1.34 36.04 1 34 C0.34 34.66 -0.32 35.32 -1 36 C-1.25523437 34.40671875 -1.25523437 34.40671875 -1.515625 32.78125 C-2.7963944 25.18638617 -4.09091277 18.73980556 -8 12 C-8 11.34 -8 10.68 -8 10 C-6.35 9.34 -4.7 8.68 -3 8 C-3 9.32 -3 10.64 -3 12 C-3.33 12.33 -3.66 12.66 -4 13 C-3.34 12.34 -2.68 11.68 -2 11 C-0.52877372 8.40371833 0.52350286 5.95428228 1 3 C0.67 2.01 0.34 1.02 0 0 Z " fill="#915D16" transform="translate(249,128)"/>
<path d="M0 0 C0.66 0.99 1.32 1.98 2 3 C2.33 2.01 2.66 1.02 3 0 C3.66 0 4.32 0 5 0 C4.51421457 3.12290635 4.0013988 5.99580359 3 9 C2.73125662 13.89072233 2.75731885 18.79013706 2.75 23.6875 C2.74766357 24.39019012 2.74532715 25.09288025 2.74291992 25.81686401 C2.7312149 35.10120768 3.12393994 43.94995875 5.34375 53.00390625 C6.02033998 56.09286171 6.11374647 58.84827484 6 62 C3.26428747 60.99270836 2.19451033 60.36613709 0.8046875 57.75 C-4.24057246 42.82620583 -6.16051044 27.68862964 -4 12 C-3.34 12 -2.68 12 -2 12 C-1.90912109 11.07767578 -1.90912109 11.07767578 -1.81640625 10.13671875 C-1.69072266 8.92435547 -1.69072266 8.92435547 -1.5625 7.6875 C-1.48128906 6.88699219 -1.40007812 6.08648437 -1.31640625 5.26171875 C-1 3 -1 3 0 0 Z " fill="#956A26" transform="translate(101,154)"/>
<path d="M0 0 C0.495 0.99 0.495 0.99 1 2 C-4.65369952 18.56573497 -14.88383708 32.52671784 -29 43 C-29.99 42.505 -29.99 42.505 -31 42 C-31.33 42 -31.66 42 -32 42 C-32.99 42 -33.98 42 -35 42 C-33.82814288 38.48442865 -32.93087207 37.25451698 -30 35 C-27.29824758 34.3697633 -24.78578005 34.18571867 -22 34 C-22 32.35 -22 30.7 -22 29 C-21.4225 28.7525 -20.845 28.505 -20.25 28.25 C-17.53776451 26.7432025 -15.88248076 25.48756387 -14 23 C-13.66582071 19.3324787 -13.66582071 19.3324787 -14 16 C-15.79090253 15.80533668 -17.58276505 15.61948787 -19.375 15.4375 C-20.37273437 15.33308594 -21.37046875 15.22867188 -22.3984375 15.12109375 C-24.984037 14.78855292 -24.984037 14.78855292 -27 16 C-29.6015625 15.22265625 -29.6015625 15.22265625 -32.625 14.0625 C-33.62789062 13.68222656 -34.63078125 13.30195313 -35.6640625 12.91015625 C-36.43492187 12.60980469 -37.20578125 12.30945313 -38 12 C-38 11.67 -38 11.34 -38 11 C-40.83359844 10.94550772 -43.66612485 10.90609267 -46.5 10.875 C-47.68722656 10.84986328 -47.68722656 10.84986328 -48.8984375 10.82421875 C-52.91577234 10.79128978 -56.45926361 10.99829515 -60.34375 12.0703125 C-63.82566805 12.955672 -64.7845699 13.01302001 -68 12 C-60.22830459 9.46985806 -53.27582872 8.57885399 -45.125 8.75 C-43.61679688 8.75773438 -43.61679688 8.75773438 -42.078125 8.765625 C-30.67000084 8.88666611 -30.67000084 8.88666611 -26 12 C-19.61519583 12.81347135 -13.41672357 12.6893634 -7.7578125 9.421875 C-4.51467644 6.79853828 -2.23604666 3.48958796 0 0 Z " fill="#B58E52" transform="translate(262,205)"/>
<path d="M0 0 C4.19925009 0.49007267 5.96332599 2.73711016 8.6875 5.8125 C9.86892578 7.12154297 9.86892578 7.12154297 11.07421875 8.45703125 C12.84288943 10.79253757 13.60761825 12.14691917 14 15 C12.68 14.01 11.36 13.02 10 12 C10 12.99 10 13.98 10 15 C9.29168884 18.42350394 8.12678638 21.69475996 7 25 C6.01 25 5.02 25 4 25 C3.67 23.68 3.34 22.36 3 21 C3.66 20.67 4.32 20.34 5 20 C4.34 20 3.68 20 3 20 C2.34 20 1.68 20 1 20 C1.34933594 20.64066406 1.69867188 21.28132813 2.05859375 21.94140625 C4.74576954 27.04932398 6.6232456 31.22309915 7 37 C4.61198171 34.61198171 3.95638934 32.58617618 2.75 29.4375 C-1.0660037 20.13044446 -6.34344455 13.34082332 -13.2421875 6.06640625 C-15 4 -15 4 -15 2 C-11.40608886 3.33488128 -8.24509304 4.96022723 -5 7 C-4.071875 6.01 -4.071875 6.01 -3.125 5 C-1 3 -1 3 1 3 C0.67 2.01 0.34 1.02 0 0 Z " fill="#9A6E2C" transform="translate(240,118)"/>
<path d="M0 0 C0.495 1.485 0.495 1.485 1 3 C-9.01698984 15.06985442 -20.94594372 24.95450248 -37 27 C-39.08065212 27.13456954 -41.16523755 27.21857142 -43.25 27.25 C-44.28640625 27.27578125 -45.3228125 27.3015625 -46.390625 27.328125 C-47.25171875 27.21984375 -48.1128125 27.1115625 -49 27 C-49.66 26.01 -50.32 25.02 -51 24 C-50.42578125 21.5546875 -50.42578125 21.5546875 -49.3125 18.875 C-48.95800781 17.98554688 -48.60351562 17.09609375 -48.23828125 16.1796875 C-47 14 -47 14 -44 13 C-44.33 14.98 -44.66 16.96 -45 19 C-43.68 18.34 -42.36 17.68 -41 17 C-40.34 18.65 -39.68 20.3 -39 22 C-36.03 21.67 -33.06 21.34 -30 21 C-29.67 19.68 -29.34 18.36 -29 17 C-27.5225254 16.63883954 -26.04295325 16.28624952 -24.5625 15.9375 C-23.73878906 15.74027344 -22.91507813 15.54304687 -22.06640625 15.33984375 C-21.04353516 15.17162109 -21.04353516 15.17162109 -20 15 C-19.67 15.33 -19.34 15.66 -19 16 C-17.68 15.34 -16.36 14.68 -15 14 C-15 12.35 -15 10.7 -15 9 C-9.25 7.875 -9.25 7.875 -7 9 C-7 7.35 -7 5.7 -7 4 C-6.01 4 -5.02 4 -4 4 C-1.81222534 2.0624994 -1.81222534 2.0624994 0 0 Z " fill="#568941" transform="translate(199,145)"/>
<path d="M0 0 C6.96426849 0.35714197 12.51607269 4.29690263 17.125 9.3125 C18.70761543 14.17339026 18.20654613 18.51809333 15.97265625 23.11328125 C10.634669 31.08158106 1.90437961 35.74921344 -7.02734375 38.6875 C-9.29680656 39.04701886 -10.82958052 38.69919554 -13 38 C-12.01 37.34 -11.02 36.68 -10 36 C-8.7934375 34.7315625 -8.7934375 34.7315625 -7.5625 33.4375 C-5.16907084 31.16082348 -4.1889557 30.35432841 -1 30 C-1 29.01 -1 28.02 -1 27 C-2.98 27 -4.96 27 -7 27 C-7.33 26.34 -7.66 25.68 -8 25 C-7.26394531 24.93941406 -6.52789062 24.87882812 -5.76953125 24.81640625 C-4.30580078 24.69072266 -4.30580078 24.69072266 -2.8125 24.5625 C-1.84957031 24.48128906 -0.88664063 24.40007812 0.10546875 24.31640625 C2.78649602 24.02333849 5.3662986 23.57296246 8 23 C8.12375 22.236875 8.2475 21.47375 8.375 20.6875 C9 18 9 18 11 15 C11.33774236 11.03152722 11.18773135 8.34870535 9 5 C6.84255767 3.66653971 6.84255767 3.66653971 4.375 2.75 C3.55773437 2.41484375 2.74046875 2.0796875 1.8984375 1.734375 C1.27195313 1.49203125 0.64546875 1.2496875 0 1 C0 0.67 0 0.34 0 0 Z " fill="#87BA3B" transform="translate(190,181)"/>
<path d="M0 0 C0.33 0.66 0.66 1.32 1 2 C2.32 2 3.64 2 5 2 C5.66 3.98 6.32 5.96 7 8 C8.98 7.34 10.96 6.68 13 6 C13.33 6.66 13.66 7.32 14 8 C14.66 7.01 15.32 6.02 16 5 C16.13810221 12.04321257 15.5988915 18.98441385 15 26 C15.66 26.33 16.32 26.66 17 27 C14.525 28.485 14.525 28.485 12 30 C12 27.03 12 24.06 12 21 C11.67 23.31 11.34 25.62 11 28 C9.66666667 28 8.33333333 28 7 28 C6.67 26.02 6.34 24.04 6 22 C5.67 22 5.34 22 5 22 C5 20.02 5 18.04 5 16 C4.25492188 15.91492188 3.50984375 15.82984375 2.7421875 15.7421875 C-0.55538266 14.84968276 -1.67803197 13.69912992 -3.875 11.125 C-4.49117188 10.42632812 -5.10734375 9.72765625 -5.7421875 9.0078125 C-6.15726562 8.34523437 -6.57234375 7.68265625 -7 7 C-6.67 6.01 -6.34 5.02 -6 4 C-4.515 4.99 -4.515 4.99 -3 6 C-2.01 4.02 -1.02 2.04 0 0 Z " fill="#459335" transform="translate(130,162)"/>
<path d="M0 0 C7.98740022 2.75278108 7.98740022 2.75278108 10.54174805 5.30712891 C13.80377939 5.36604005 13.80377939 5.36604005 17.47924805 4.99462891 C18.72577148 4.89537109 19.97229492 4.79611328 21.2565918 4.69384766 C24.54216476 4.41985051 24.54216476 4.41985051 27.54174805 3.30712891 C27.54174805 4.62712891 27.54174805 5.94712891 27.54174805 7.30712891 C23.76952716 9.05876347 20.87510905 9.53202917 16.72924805 9.43212891 C15.26551758 9.40505859 15.26551758 9.40505859 13.7722168 9.37744141 C13.03616211 9.35423828 12.30010742 9.33103516 11.54174805 9.30712891 C11.21174805 9.96712891 10.88174805 10.62712891 10.54174805 11.30712891 C6.98503708 11.38796325 3.96756865 11.22068107 0.54174805 10.30712891 C-0.77825195 10.30712891 -2.09825195 10.30712891 -3.45825195 10.30712891 C-3.45825195 9.64712891 -3.45825195 8.98712891 -3.45825195 8.30712891 C-4.44825195 8.30712891 -5.43825195 8.30712891 -6.45825195 8.30712891 C-7.83258106 7.01609247 -9.16721552 5.68145801 -10.45825195 4.30712891 C-11.11825195 3.97712891 -11.77825195 3.64712891 -12.45825195 3.30712891 C-12.45825195 2.64712891 -12.45825195 1.98712891 -12.45825195 1.30712891 C-16.74825195 1.96712891 -21.03825195 2.62712891 -25.45825195 3.30712891 C-24.79825195 2.64712891 -24.13825195 1.98712891 -23.45825195 1.30712891 C-25.10825195 1.63712891 -26.75825195 1.96712891 -28.45825195 2.30712891 C-21.74000851 -4.71648924 -8.66241247 -2.70642855 0 0 Z M-8.45825195 0.30712891 C-4.45825195 1.30712891 -4.45825195 1.30712891 -4.45825195 1.30712891 Z " fill="#549A31" transform="translate(170.458251953125,196.69287109375)"/>
<path d="M0 0 C4.6889493 0.55619669 8.19924267 1.88182673 12.375 4.0625 C13.43460938 4.61035156 14.49421875 5.15820312 15.5859375 5.72265625 C16.38257813 6.14417969 17.17921875 6.56570312 18 7 C18.1640625 11.7890625 18.1640625 11.7890625 16.6875 13.6875 C15.17725852 14.86213226 13.5919343 15.93871047 12 17 C11.67 17.66 11.34 18.32 11 19 C10.27296875 18.60167969 9.5459375 18.20335938 8.796875 17.79296875 C1.66441102 14.03470888 -5.1019481 11.59641475 -13 10 C-13 9.34 -13 8.68 -13 8 C-21.25 7.67 -29.5 7.34 -38 7 C-38 6.67 -38 6.34 -38 6 C-34.2500163 5.97094076 -30.50006163 5.95318126 -26.75 5.9375 C-25.15478516 5.92493164 -25.15478516 5.92493164 -23.52734375 5.91210938 C-22.50253906 5.90888672 -21.47773438 5.90566406 -20.421875 5.90234375 C-19.00793457 5.89448853 -19.00793457 5.89448853 -17.56542969 5.88647461 C-15.20302814 5.9910156 -13.27156599 6.39626641 -11 7 C-6.34299027 7.30560062 -6.34299027 7.30560062 -2 6 C-1.505 7.485 -1.505 7.485 -1 9 C1.38564077 8.42415568 3.66682784 7.77772405 6 7 C6 6.01 6 5.02 6 4 C4.02 4.33 2.04 4.66 0 5 C0 3.33333333 0 1.66666667 0 0 Z " fill="#B38533" transform="translate(206,98)"/>
<path d="M0 0 C2.9417327 0.95777344 5.83268005 1.92995909 8.6875 3.125 C11.05555895 4.17694605 11.05555895 4.17694605 14 4 C14 4.66 14 5.32 14 6 C15.3921875 5.7525 15.3921875 5.7525 16.8125 5.5 C23.76117364 4.52350615 30.52014651 4.04078893 37 7 C37 7.66 37 8.32 37 9 C43.08191154 9.22027044 48.24763888 9.08064125 54 7 C54.33 6.67 54.66 6.34 55 6 C57.18019479 5.60333773 59.3696463 5.25684763 61.5625 4.9375 C62.76003906 4.76089844 63.95757812 4.58429688 65.19140625 4.40234375 C66.58166016 4.20318359 66.58166016 4.20318359 68 4 C65.41974265 7.87038603 63.67846746 7.93846969 59.25 9.125 C58.03828125 9.45757812 56.8265625 9.79015625 55.578125 10.1328125 C37.30604005 14.5611999 18.09891549 12.70997611 1 5 C1 4.01 1 3.02 1 2 C0.67 1.34 0.34 0.68 0 0 Z " fill="#7A4A1D" transform="translate(146,252)"/>
<path d="M0 0 C1.61648437 0.43119141 1.61648437 0.43119141 3.265625 0.87109375 C4.08546875 1.09925781 4.9053125 1.32742187 5.75 1.5625 C5.09 2.8825 4.43 4.2025 3.75 5.5625 C5.73 5.2325 7.71 4.9025 9.75 4.5625 C9.75 5.5525 9.75 6.5425 9.75 7.5625 C8 9.3125 8 9.3125 5.75 10.5625 C3.5625 10.375 3.5625 10.375 1.75 9.5625 C1.42 8.9025 1.09 8.2425 0.75 7.5625 C0.42 7.8925 0.09 8.2225 -0.25 8.5625 C-6.03560982 8.86983651 -11.49260325 8.02391983 -17.1875 7.0625 C-18.49944336 6.84787109 -18.49944336 6.84787109 -19.83789062 6.62890625 C-21.97607717 6.27838387 -24.11315849 5.92113074 -26.25 5.5625 C-25.92 3.9125 -25.59 2.2625 -25.25 0.5625 C-23.69539062 0.47162109 -23.69539062 0.47162109 -22.109375 0.37890625 C-20.73957127 0.29446629 -19.36978025 0.20982003 -18 0.125 C-17.31808594 0.08568359 -16.63617188 0.04636719 -15.93359375 0.00585938 C-11.99641733 -0.22834212 -11.99641733 -0.22834212 -8.15625 -1.0625 C-5.22328688 -1.63947635 -2.8558631 -0.77604976 0 0 Z " fill="#C2912F" transform="translate(202.25,97.4375)"/>
<path d="M0 0 C2.5 0.75 2.5 0.75 5.5 2.75 C4.15981034 6.77056899 2.19964903 7.57320463 -1.3125 9.875 C-2.37082031 10.57882813 -3.42914063 11.28265625 -4.51953125 12.0078125 C-6.99092683 13.45242905 -8.6946968 14.40405454 -11.5 14.75 C-14.95235046 13.59921651 -16.51118929 11.73321607 -18.5 8.75 C-21.01083114 10.00541557 -21.37125446 11.25063488 -22.5 13.75 C-24.8431213 13.49438677 -27.17843403 13.15729228 -29.5 12.75 C-29.83 12.09 -30.16 11.43 -30.5 10.75 C-30.17 10.09 -29.84 9.43 -29.5 8.75 C-27.52 8.75 -25.54 8.75 -23.5 8.75 C-23.5 8.09 -23.5 7.43 -23.5 6.75 C-17.73918159 5.4517874 -12.41260345 4.49293028 -6.5 4.75 C-6.17 3.76 -5.84 2.77 -5.5 1.75 C-2.5 -0.25 -2.5 -0.25 0 0 Z " fill="#87BD35" transform="translate(213.5,122.25)"/>
<path d="M0 0 C3.67703527 0.46913898 6.52160189 1.58746414 9.75 3.375 C10.52859375 3.79523438 11.3071875 4.21546875 12.109375 4.6484375 C14 6 14 6 15 9 C15.99 9.33 16.98 9.66 18 10 C18.6875 12.0625 18.6875 12.0625 19 14 C18.071875 13.773125 17.14375 13.54625 16.1875 13.3125 C13.03682848 12.62434952 13.03682848 12.62434952 11.25 14.4375 C10.8375 14.953125 10.425 15.46875 10 16 C9.34 16 8.68 16 8 16 C7.01 18.475 7.01 18.475 6 21 C5.34 20.01 4.68 19.02 4 18 C4 19.32 4 20.64 4 22 C-0.93745356 16.61368702 -1.22753527 9.73061299 -1.16796875 2.78515625 C-1 1 -1 1 0 0 Z " fill="#96C23B" transform="translate(116,141)"/>
<path d="M0 0 C1.33983819 0.00648361 2.67968312 0.01170254 4.01953125 0.015625 C13.78530696 0.09510232 13.78530696 0.09510232 17.25 1.25 C18 3.1875 18 3.1875 18.25 5.25 C17.92 5.91 17.59 6.57 17.25 7.25 C14.52734375 7.6640625 14.52734375 7.6640625 11.1875 7.875 C10.08277344 7.94976562 8.97804687 8.02453125 7.83984375 8.1015625 C6.98519531 8.15054688 6.13054687 8.19953125 5.25 8.25 C5.25 7.59 5.25 6.93 5.25 6.25 C4.34636719 6.47816406 3.44273437 6.70632812 2.51171875 6.94140625 C1.33222656 7.22886719 0.15273437 7.51632813 -1.0625 7.8125 C-2.82013672 8.24755859 -2.82013672 8.24755859 -4.61328125 8.69140625 C-7.75 9.25 -7.75 9.25 -10.75 8.25 C-9.1 7.26 -7.45 6.27 -5.75 5.25 C-6.56984375 5.18941406 -7.3896875 5.12882812 -8.234375 5.06640625 C-9.31203125 4.98261719 -10.3896875 4.89882812 -11.5 4.8125 C-12.56734375 4.73128906 -13.6346875 4.65007812 -14.734375 4.56640625 C-17.18679962 4.30909227 -19.38921291 3.93187782 -21.75 3.25 C-14.82737714 -0.73575256 -7.80438952 -0.12278292 0 0 Z " fill="#9BC93A" transform="translate(189.75,119.75)"/>
<path d="M0 0 C0.7425 0.2475 1.485 0.495 2.25 0.75 C2.04676724 6.03405163 1.00109054 9.48858184 -1.5625 14.125 C-5.70836314 21.89724463 -7.12984965 30.17273346 -8.75 38.75 C-9.08 38.75 -9.41 38.75 -9.75 38.75 C-10.14325819 31.77330843 -9.38096039 26.23343811 -6.75 19.75 C-7.41 19.75 -8.07 19.75 -8.75 19.75 C-9.08 21.07 -9.41 22.39 -9.75 23.75 C-10.41 23.42 -11.07 23.09 -11.75 22.75 C-12.41 25.72 -13.07 28.69 -13.75 31.75 C-14.08 31.75 -14.41 31.75 -14.75 31.75 C-14.63631648 24.70162152 -12.94323347 18.89318249 -10.4375 12.375 C-10.14157959 11.59012207 -9.84565918 10.80524414 -9.54077148 9.99658203 C-5.36530369 -0.48775488 -5.36530369 -0.48775488 0 0 Z " fill="#A27B3F" transform="translate(112.75,134.25)"/>
<path d="M0 0 C-1.134375 0.44730469 -2.26875 0.89460938 -3.4375 1.35546875 C-14.74651576 5.69202498 -14.74651576 5.69202498 -25 12 C-25.34411827 13.33059066 -25.67795107 14.66389619 -26 16 C-28.5625 17.6875 -28.5625 17.6875 -31 19 C-31 19.33 -31 19.66 -31 20 C-31.928125 20.2475 -32.85625 20.495 -33.8125 20.75 C-37.35705885 22.14002308 -37.93508138 22.9456412 -40 26 C-40.52980469 26.77859375 -41.05960938 27.5571875 -41.60546875 28.359375 C-42.12753906 29.14828125 -42.64960937 29.9371875 -43.1875 30.75 C-43.98220703 31.94882813 -43.98220703 31.94882813 -44.79296875 33.171875 C-45.19128906 33.77515625 -45.58960937 34.3784375 -46 35 C-41.72290301 35 -40.44069624 34.29379749 -37 32 C-38.40976705 35.03852705 -40.08870228 37.5939595 -42.125 40.25 C-42.66382812 40.95640625 -43.20265625 41.6628125 -43.7578125 42.390625 C-44.16773437 42.92171875 -44.57765625 43.4528125 -45 44 C-45.66 43.67 -46.32 43.34 -47 43 C-46.34 41.35 -45.68 39.7 -45 38 C-47.31 38.66 -49.62 39.32 -52 40 C-45.51990416 22.01048021 -28.96332711 10.33633478 -12.515625 2.296875 C-4.41570075 -1.29870113 -4.41570075 -1.29870113 0 0 Z " fill="#B69860" transform="translate(160,97)"/>
<path d="M0 0 C-3 1 -3 1 -5.86328125 -0.36328125 C-7.00152344 -1.00652344 -8.13976562 -1.64976563 -9.3125 -2.3125 C-18.6279931 -7.2703528 -28.23693749 -8.9445263 -38.71875 -7.19140625 C-41.62106647 -6.94788997 -44.12312547 -7.51273355 -47 -8 C-50.45496652 -8.26209844 -53.91359155 -8.41189664 -57.375 -8.5625 C-58.30183594 -8.60568359 -59.22867188 -8.64886719 -60.18359375 -8.69335938 C-62.45560294 -8.79876186 -64.72770925 -8.90088606 -67 -9 C-67 -9.33 -67 -9.66 -67 -10 C-43.31835059 -15.58008496 -20.95314883 -11.76116801 0 0 Z " fill="#B59252" transform="translate(227,105)"/>
<path d="M0 0 C5.45769811 -0.11138159 10.61509359 0.08342019 16 1 C16 1.33 16 1.66 16 2 C20.95 2.99 20.95 2.99 26 4 C26 4.33 26 4.66 26 5 C25.41210693 4.98428955 24.82421387 4.9685791 24.21850586 4.95239258 C7.24132142 4.56003834 -7.42992441 5.47408792 -23 13 C-23.77730469 13.36867188 -24.55460937 13.73734375 -25.35546875 14.1171875 C-31.93496447 17.4942738 -37.40961086 22.20375959 -43 27 C-44 24 -44 24 -44 22 C-43.113125 21.773125 -42.22625 21.54625 -41.3125 21.3125 C-37.52028229 19.80992317 -35.74983721 17.96692962 -33 15 C-30.37266169 12.77074325 -28.40303142 11.60768418 -25 11 C-25 10.34 -25 9.68 -25 9 C-21.54253984 8.16301505 -18.08389511 7.33103324 -14.625 6.5 C-13.64015625 6.26152344 -12.6553125 6.02304688 -11.640625 5.77734375 C-10.69960937 5.55175781 -9.75859375 5.32617188 -8.7890625 5.09375 C-7.91975098 4.88427734 -7.05043945 4.67480469 -6.15478516 4.45898438 C-4 4 -4 4 -2 4 C-2 3.34 -2 2.68 -2 2 C-1.34 2 -0.68 2 0 2 C0 1.34 0 0.68 0 0 Z " fill="#BE9753" transform="translate(167,102)"/>
<path d="M0 0 C-0.33 0.99 -0.66 1.98 -1 3 C-1.99 2.67 -2.98 2.34 -4 2 C-4 1.34 -4 0.68 -4 0 C-10.06050614 -1.0812391 -10.06050614 -1.0812391 -16 0 C-16.495 -1.485 -16.495 -1.485 -17 -3 C-21.33743239 -3.1503376 -25.6734148 -3.25812607 -30.01269531 -3.32958984 C-31.48301664 -3.35943268 -32.95316525 -3.40012433 -34.42285156 -3.45263672 C-43.79819333 -3.77879117 -50.39918592 -3.2396761 -58.67089844 1.79833984 C-59.43950195 2.1948877 -60.20810547 2.59143555 -61 3 C-61.99 2.67 -62.98 2.34 -64 2 C-44.7437459 -11.27474738 -20.62220083 -9.17059495 0 0 Z " fill="#98B648" transform="translate(224,124)"/>
<path d="M0 0 C-0.33 0.99 -0.66 1.98 -1 3 C-2.32 3 -3.64 3 -5 3 C-5 3.66 -5 4.32 -5 5 C-6.98 5 -8.96 5 -11 5 C-11.020625 5.5775 -11.04125 6.155 -11.0625 6.75 C-12.53615776 10.28677861 -15.6708354 11.48079607 -19 13 C-21.4375 13.75 -21.4375 13.75 -23 14 C-23 13.01 -23 12.02 -23 11 C-23.70125 11.721875 -24.4025 12.44375 -25.125 13.1875 C-27.92770745 15.99823813 -30.92262792 18.49516226 -34 21 C-33.690625 20.401875 -33.38125 19.80375 -33.0625 19.1875 C-31.89790296 16.91043228 -31.89790296 16.91043228 -31 14 C-30.34 13.690625 -29.68 13.38125 -29 13.0625 C-26.79394438 12.17972859 -26.79394438 12.17972859 -26.25 9.875 C-26.1675 9.25625 -26.085 8.6375 -26 8 C-25.34 8 -24.68 8 -24 8 C-24 7.34 -24 6.68 -24 6 C-21.58394775 5.18563413 -19.16720002 4.37344603 -16.75 3.5625 C-16.06808594 3.33240234 -15.38617188 3.10230469 -14.68359375 2.86523438 C-9.56760432 1.15162627 -5.39711606 -0.14991989 0 0 Z " fill="#91B03B" transform="translate(195,126)"/>
<path d="M0 0 C0 0.99 0 1.98 0 3 C1.32 2.34 2.64 1.68 4 1 C4.103125 1.598125 4.20625 2.19625 4.3125 2.8125 C5.08876455 5.28243264 6.07088921 6.32251235 8 8 C5.35039045 11.63094642 2.98175544 13.89851796 -1 16 C-1.33 15.34 -1.66 14.68 -2 14 C-2.66 14.66 -3.32 15.32 -4 16 C-4.33 15.34 -4.66 14.68 -5 14 C-6.485 16.475 -6.485 16.475 -8 19 C-8.99 18.67 -9.98 18.34 -11 18 C-9.68 14.37 -8.36 10.74 -7 7 C-6.34 7 -5.68 7 -5 7 C-4.731875 6.401875 -4.46375 5.80375 -4.1875 5.1875 C-3.01506533 3.02775192 -1.80630718 1.64209744 0 0 Z " fill="#8DC037" transform="translate(156,131)"/>
<path d="M0 0 C0.60585937 0.19335938 1.21171875 0.38671875 1.8359375 0.5859375 C11.86879962 3.70384234 21.51505045 5.31541566 32 6 C23.44664875 13.15116252 11.51875204 12.38798676 1 12 C1.33 11.34 1.66 10.68 2 10 C1.01 9.34 0.02 8.68 -1 8 C4.28 8.33 9.56 8.66 15 9 C13.081875 8.566875 11.16375 8.13375 9.1875 7.6875 C2.54464286 6.1875 2.54464286 6.1875 0 3 C2.97 3.495 2.97 3.495 6 4 C4.02 3.01 2.04 2.02 0 1 C0 0.67 0 0.34 0 0 Z M20 7 C20.33 7.66 20.66 8.32 21 9 C22.98 8.67 24.96 8.34 27 8 C27 7.67 27 7.34 27 7 C24.69 7 22.38 7 20 7 Z " fill="#736A49" transform="translate(162,232)"/>
<path d="M0 0 C3 3.75 3 3.75 3 6 C3.66 6 4.32 6 5 6 C5.33 7.98 5.66 9.96 6 12 C4.68 11.34 3.36 10.68 2 10 C1.38125 10.495 0.7625 10.99 0.125 11.5 C-2 13 -2 13 -4 13 C-3.79375 13.928125 -3.5875 14.85625 -3.375 15.8125 C-3 19 -3 19 -5 22 C-4.67 22.66 -4.34 23.32 -4 24 C-4.99 24.33 -5.98 24.66 -7 25 C-7.33 23.02 -7.66 21.04 -8 19 C-8.66 19.66 -9.32 20.32 -10 21 C-10.66 15.72 -11.32 10.44 -12 5 C-10.68 6.32 -9.36 7.64 -8 9 C-4.3324787 9.33417929 -4.3324787 9.33417929 -1 9 C-1.020625 7.88625 -1.04125 6.7725 -1.0625 5.625 C-1 2 -1 2 0 0 Z " fill="#845317" transform="translate(258,143)"/>
<path d="M0 0 C-7 7 -7 7 -9.625 7.125 C-10.40875 7.08375 -11.1925 7.0425 -12 7 C-11.67 7.99 -11.34 8.98 -11 10 C-14.12621626 13.39417765 -16.56541027 15.6062718 -21 17 C-21.33 16.01 -21.66 15.02 -22 14 C-20.34860059 11.08832209 -18.10566163 8.59649185 -16 6 C-15.58105469 5.41089844 -15.16210938 4.82179688 -14.73046875 4.21484375 C-12.52141514 1.20787111 -10.9058913 -0.03962472 -7.4375 -1.5 C-3.97507742 -2.0036251 -2.78301597 -2.0037715 0 0 Z " fill="#BD8E31" transform="translate(135,117)"/>
<path d="M0 0 C0.66 0.33 1.32 0.66 2 1 C1.649375 1.639375 1.29875 2.27875 0.9375 2.9375 C-0.36335883 7.18697217 0.32862571 10.67079337 1 15 C1.0825 15.99 1.165 16.98 1.25 18 C2.19378726 21.77514905 3.94746215 24.72551769 5.94140625 28.046875 C7 30 7 30 7 32 C3.96314367 31.67462254 3.04366334 31.04763274 0.9375 28.75 C0.298125 27.8425 -0.34125 26.935 -1 26 C-1.5259375 25.26007813 -2.051875 24.52015625 -2.59375 23.7578125 C-5.25264953 18.54341509 -4.62099936 12.70012049 -4 7 C-2.96177747 4.15949507 -1.84918101 2.42705007 0 0 Z " fill="#0A572A" transform="translate(141,203)"/>
<path d="M0 0 C5.10369739 1.18116658 8.72656465 2.66406415 12.94921875 5.8984375 C14.4073341 6.98206421 15.86567583 8.06538636 17.32421875 9.1484375 C18.53375451 10.06351699 19.7425146 10.97962723 20.94921875 11.8984375 C19.95921875 12.2284375 18.96921875 12.5584375 17.94921875 12.8984375 C18.27921875 13.8884375 18.60921875 14.8784375 18.94921875 15.8984375 C18.28921875 15.8984375 17.62921875 15.8984375 16.94921875 15.8984375 C16.61921875 15.2384375 16.28921875 14.5784375 15.94921875 13.8984375 C13.32535388 16.95961318 12.94921875 17.63016877 12.94921875 21.8984375 C9.07421875 20.1484375 9.07421875 20.1484375 7.94921875 17.8984375 C8.27921875 17.5684375 8.60921875 17.2384375 8.94921875 16.8984375 C8.28921875 15.9084375 7.62921875 14.9184375 6.94921875 13.8984375 C6.94921875 13.2384375 6.94921875 12.5784375 6.94921875 11.8984375 C7.60921875 11.8984375 8.26921875 11.8984375 8.94921875 11.8984375 C8.92859375 11.0940625 8.90796875 10.2896875 8.88671875 9.4609375 C8.94921875 6.8984375 8.94921875 6.8984375 9.94921875 5.8984375 C4.9562558 2.9538696 0.61364249 2.26347814 -5.05078125 1.8984375 C-2.05078125 -0.1015625 -2.05078125 -0.1015625 0 0 Z " fill="#6B4018" transform="translate(115.05078125,219.1015625)"/>
<path d="M0 0 C0 0.99 0 1.98 0 3 C-0.61875 3.0825 -1.2375 3.165 -1.875 3.25 C-4.15042479 3.79923543 -4.15042479 3.79923543 -5.125 5.875 C-5.558125 6.926875 -5.558125 6.926875 -6 8 C-6.99 9.485 -6.99 9.485 -8 11 C-6.53737408 9.9015258 -5.08004497 8.7959964 -3.625 7.6875 C-2.81289062 7.07261719 -2.00078125 6.45773438 -1.1640625 5.82421875 C1.19779389 4.00519317 1.19779389 4.00519317 3 1 C4.32 1.33 5.64 1.66 7 2 C4.89172965 4.26443852 3.10393424 5.94308363 0.375 7.4375 C-2.5412475 9.35608388 -2.75677037 10.81422407 -4 14 C-6.625 16.3125 -6.625 16.3125 -9 18 C-9 17.01 -9 16.02 -9 15 C-9.598125 15.969375 -10.19625 16.93875 -10.8125 17.9375 C-13 21 -13 21 -16 22 C-16.66 22.66 -17.32 23.32 -18 24 C-17.11223998 20.30099992 -16.05418136 16.65449539 -15 13 C-14.34 13 -13.68 13 -13 13 C-12.731875 12.360625 -12.46375 11.72125 -12.1875 11.0625 C-11 9 -11 9 -8 8 C-7.31513275 6.67592331 -6.65129797 5.34090759 -6 4 C-2.44444444 0 -2.44444444 0 0 0 Z M-12 14 C-12 17 -12 17 -12 17 Z M-14 17 C-13 19 -13 19 -13 19 Z " fill="#87A742" transform="translate(168,136)"/>
<path d="M0 0 C4.0067695 2.17510344 6.82720612 4.74788628 10 8 C13.78465353 11.47976025 16.78858552 12.73506778 21.8125 13.75 C22.97394531 13.99234375 24.13539063 14.2346875 25.33203125 14.484375 C26.65267578 14.73960937 26.65267578 14.73960937 28 15 C27.67 15.66 27.34 16.32 27 17 C14.33029613 16.03644647 14.33029613 16.03644647 9 15 C9 14.34 9 13.68 9 13 C6.75116689 11.40604084 6.75116689 11.40604084 4 9.875 C2.6078125 9.06675781 2.6078125 9.06675781 1.1875 8.2421875 C0.465625 7.83226562 -0.25625 7.42234375 -1 7 C-0.67 4.69 -0.34 2.38 0 0 Z " fill="#18552D" transform="translate(150,225)"/>
<path d="M0 0 C3.55780196 0.60990891 6.6828589 1.5783681 10 3 C7.08092388 5.91907612 3.53369359 6.24846572 -0.375 7.125 C-1.14328125 7.30675781 -1.9115625 7.48851563 -2.703125 7.67578125 C-6.30932098 8.50558067 -9.25371241 9 -13 9 C-13 9.66 -13 10.32 -13 11 C-18.75 14 -18.75 14 -21 14 C-20.67 13.01 -20.34 12.02 -20 11 C-19.34 11 -18.68 11 -18 11 C-18 10.01 -18 9.02 -18 8 C-17.67 7.34 -17.34 6.68 -17 6 C-13.59974923 5.10519716 -10.49980076 5 -7 5 C-6.67 4.34 -6.34 3.68 -6 3 C-3.03 3.495 -3.03 3.495 0 4 C0 2.68 0 1.36 0 0 Z " fill="#C29232" transform="translate(155,102)"/>
<path d="M0 0 C8.25150143 2.82429193 8.25150143 2.82429193 9.49291992 5.30712891 C1.86977518 5.54289627 -5.09277417 5.14430205 -12.50708008 3.30712891 C-12.50708008 2.64712891 -12.50708008 1.98712891 -12.50708008 1.30712891 C-16.79708008 1.96712891 -21.08708008 2.62712891 -25.50708008 3.30712891 C-24.84708008 2.64712891 -24.18708008 1.98712891 -23.50708008 1.30712891 C-25.15708008 1.63712891 -26.80708008 1.96712891 -28.50708008 2.30712891 C-21.77718247 -4.72867313 -8.67761253 -2.69336807 0 0 Z M-8.50708008 0.30712891 C-4.50708008 1.30712891 -4.50708008 1.30712891 -4.50708008 1.30712891 Z " fill="#4E774F" transform="translate(170.507080078125,196.69287109375)"/>
<path d="M0 0 C0.33 0 0.66 0 1 0 C1.33 1.65 1.66 3.3 2 5 C2.33 5 2.66 5 3 5 C3.0501123 5.69448242 3.10022461 6.38896484 3.15185547 7.10449219 C3.38718353 10.32010874 3.63105521 13.53502609 3.875 16.75 C3.95363281 17.84183594 4.03226562 18.93367188 4.11328125 20.05859375 C4.68257525 27.4594157 5.65466264 34.70051315 7 42 C4.4127495 39.4127495 3.93443913 37.11722529 2.875 33.625 C2.52179688 32.48289063 2.16859375 31.34078125 1.8046875 30.1640625 C1 27 1 27 1 23 C0.34 23 -0.32 23 -1 23 C-1.33 17.72 -1.66 12.44 -2 7 C-1.34 7 -0.68 7 0 7 C0 4.69 0 2.38 0 0 Z " fill="#895420" transform="translate(98,170)"/>
<path d="M0 0 C3.37503669 1.1858237 5.64722731 2.27573689 8 5 C6.35 5.33 4.7 5.66 3 6 C2.01 4.02 1.02 2.04 0 0 Z M-2 1 C-1.34 1.33 -0.68 1.66 0 2 C0 2.66 0 3.32 0 4 C0.66 4 1.32 4 2 4 C1.67 5.32 1.34 6.64 1 8 C1.99 8.33 2.98 8.66 4 9 C3.75 11.875 3.75 11.875 3 15 C1.02 15.99 1.02 15.99 -1 17 C-3.31 15.02 -5.62 13.04 -8 11 C-6.68 10.67 -5.36 10.34 -4 10 C-4.33 8.35 -4.66 6.7 -5 5 C-4.01 4.67 -3.02 4.34 -2 4 C-2 3.01 -2 2.02 -2 1 Z " fill="#66380B" transform="translate(132,231)"/>
<path d="M0 0 C0 0.33 0 0.66 0 1 C-1.16917969 1.19335938 -2.33835938 1.38671875 -3.54296875 1.5859375 C-5.09119532 1.84866686 -6.6393697 2.11170392 -8.1875 2.375 C-8.95642578 2.50132812 -9.72535156 2.62765625 -10.51757812 2.7578125 C-18.62067608 4.1154728 -18.62067608 4.1154728 -25 9 C-25.495 8.01 -25.495 8.01 -26 7 C-26.62261719 7.144375 -27.24523437 7.28875 -27.88671875 7.4375 C-38.21585761 9.5119714 -48.5096025 9.19164582 -59 9 C-58.0409375 10.423125 -58.0409375 10.423125 -57.0625 11.875 C-55 15 -55 15 -54 17 C-57.16115776 15.63016497 -57.9927092 15.0109362 -60 12 C-60 10.68 -60 9.36 -60 8 C-59.43716309 7.9906543 -58.87432617 7.98130859 -58.29443359 7.97167969 C-47.85351573 7.75464818 -38.31087395 7.3006882 -28.3359375 4.0546875 C-19.10781855 1.13713233 -9.68500806 -0.61528286 0 0 Z " fill="#8E6A37" transform="translate(216,215)"/>
<path d="M0 0 C0.33 0.66 0.66 1.32 1 2 C1.66 2 2.32 2 3 2 C3.50559908 3.43554025 4.0042749 4.8735202 4.5 6.3125 C4.7784375 7.11300781 5.056875 7.91351563 5.34375 8.73828125 C6 11 6 11 6 14 C5.34 14 4.68 14 4 14 C4 14.66 4 15.32 4 16 C0.23132354 15.44848637 -1.34591504 13.9602745 -3.8125 11.125 C-4.75029297 10.07699219 -4.75029297 10.07699219 -5.70703125 9.0078125 C-6.13371094 8.34523437 -6.56039062 7.68265625 -7 7 C-6.67 6.01 -6.34 5.02 -6 4 C-4.515 4.99 -4.515 4.99 -3 6 C-2.01 4.02 -1.02 2.04 0 0 Z " fill="#5B8041" transform="translate(130,162)"/>
<path d="M0 0 C0.33 0 0.66 0 1 0 C1.02187378 0.82854492 1.02187378 0.82854492 1.04418945 1.67382812 C1.36324489 12.56004463 2.03829556 23.00200515 4.37890625 33.65234375 C4.973538 36.85737149 5.11412112 39.75002907 5 43 C2.26635237 41.99135853 1.18952144 41.34655349 -0.23046875 38.75 C-2.41531389 32.47191438 -3.71154298 26.64893424 -4 20 C-2.49439503 22.85410334 -1.36783204 25.68124642 -0.375 28.75 C-0.11460938 29.54921875 0.14578125 30.3484375 0.4140625 31.171875 C0.60742188 31.77515625 0.80078125 32.3784375 1 33 C0.83701416 32.14390137 0.67402832 31.28780273 0.50610352 30.40576172 C0.00638334 27.04295588 -0.11383146 23.90460706 -0.09765625 20.5078125 C-0.09443359 19.30898437 -0.09121094 18.11015625 -0.08789062 16.875 C-0.07951172 15.6375 -0.07113281 14.4 -0.0625 13.125 C-0.05798828 11.86429688 -0.05347656 10.60359375 -0.04882812 9.3046875 C-0.0370796 6.20307614 -0.02065167 3.10156275 0 0 Z " fill="#866F4D" transform="translate(102,173)"/>
<path d="M0 0 C0.33 0.66 0.66 1.32 1 2 C0.01 3.485 0.01 3.485 -1 5 C-1.51679327 6.97027436 -2.0301497 8.94195228 -2.4921875 10.92578125 C-3.16525656 13.6750095 -4.06549272 16.3299792 -5 19 C-5.66 18.67 -6.32 18.34 -7 18 C-7.66 18.66 -8.32 19.32 -9 20 C-9.33 19.01 -9.66 18.02 -10 17 C-11.65 17.66 -13.3 18.32 -15 19 C-16.26237731 16.47524538 -16.09856404 14.68799534 -16.0625 11.875 C-16.05347656 10.96492187 -16.04445312 10.05484375 -16.03515625 9.1171875 C-16.02355469 8.41851562 -16.01195312 7.71984375 -16 7 C-15.34 7 -14.68 7 -14 7 C-14 9.97 -14 12.94 -14 16 C-13.34 16 -12.68 16 -12 16 C-12 13.36 -12 10.72 -12 8 C-10.68 9.32 -9.36 10.64 -8 12 C-7.71125 11.360625 -7.4225 10.72125 -7.125 10.0625 C-6 8 -6 8 -4 7 C-2.88365848 5.34948712 -2.88365848 5.34948712 -1.875 3.4375 C-1.25625 2.303125 -0.6375 1.16875 0 0 Z " fill="#589233" transform="translate(152,152)"/>
<path d="M0 0 C2.50357192 1.25178596 4.06433379 2.99981158 6 5 C5.01 5.33 4.02 5.66 3 6 C1.33289654 7.49985609 1.33289654 7.49985609 0 9 C0 8.34 0 7.68 0 7 C-3.27773504 7.75150023 -3.27773504 7.75150023 -5 11 C-5.66 10.67 -6.32 10.34 -7 10 C-9.11683841 10.89163577 -9.11683841 10.89163577 -11 12 C-11 11.01 -11 10.02 -11 9 C-12.32 10.65 -13.64 12.3 -15 14 C-15.66 13.67 -16.32 13.34 -17 13 C-15.8758824 11.70756532 -14.75067408 10.41607925 -13.625 9.125 C-12.68527344 8.04605469 -12.68527344 8.04605469 -11.7265625 6.9453125 C-8.34796515 3.13865756 -5.92250201 2.34250055 -1 1 C-0.67 0.67 -0.34 0.34 0 0 Z " fill="#9CC343" transform="translate(166,124)"/>
<path d="M0 0 C3.67703527 0.46913898 6.52160189 1.58746414 9.75 3.375 C10.52859375 3.79523438 11.3071875 4.21546875 12.109375 4.6484375 C14 6 14 6 15 9 C15.99 9.33 16.98 9.66 18 10 C18.6875 12.0625 18.6875 12.0625 19 14 C18.071875 13.835 17.14375 13.67 16.1875 13.5 C13.04378647 12.92251612 13.04378647 12.92251612 10 13 C10.33 12.38125 10.66 11.7625 11 11.125 C12.14193235 9.08981656 12.14193235 9.08981656 12 7 C8.72447281 5.11027278 5.7157043 4.56499065 2 4 C2.14194764 6.06277107 2.28872216 8.12521031 2.4375 10.1875 C2.55931641 11.91033203 2.55931641 11.91033203 2.68359375 13.66796875 C2.95403812 16.51598171 3.37521747 19.21210482 4 22 C-0.93745356 16.61368702 -1.22753527 9.73061299 -1.16796875 2.78515625 C-1 1 -1 1 0 0 Z " fill="#95AB57" transform="translate(116,141)"/>
<path d="M0 0 C1.65 0.33 3.3 0.66 5 1 C4.67 3.64 4.34 6.28 4 9 C3.67 8.34 3.34 7.68 3 7 C2.34 7 1.68 7 1 7 C0.731875 7.9075 0.46375 8.815 0.1875 9.75 C-0.89576294 12.71471963 -1.98359457 14.6169754 -4 17 C-4 16.34 -4 15.68 -4 15 C-5.32 15.33 -6.64 15.66 -8 16 C-6.40639347 9.44418777 -4.73935838 4.86744914 0 0 Z " fill="#A98037" transform="translate(110,134)"/>
<path d="M0 0 C1.32 0.33 2.64 0.66 4 1 C4 1.66 4 2.32 4 3 C4.99 3 5.98 3 7 3 C7 3.66 7 4.32 7 5 C6.40832031 5.31453125 5.81664062 5.6290625 5.20703125 5.953125 C4.02173828 6.59507812 4.02173828 6.59507812 2.8125 7.25 C2.03519531 7.66765625 1.25789063 8.0853125 0.45703125 8.515625 C-4.3789296 11.43719118 -7.85608356 14.79766696 -11.3125 19.25 C-12.00988281 20.14203125 -12.70726562 21.0340625 -13.42578125 21.953125 C-13.94527344 22.62859375 -14.46476563 23.3040625 -15 24 C-16.03881699 20.30820424 -16.1363245 17.73363765 -15 14 C-13.35070075 13.29145628 -11.67942765 12.63383357 -10 12 C-7.88757944 10.71324636 -5.80493171 9.37670302 -3.75 8 C-2.69296875 7.29875 -1.6359375 6.5975 -0.546875 5.875 C2.06439097 4.25050971 2.06439097 4.25050971 3 2 C2.01 1.67 1.02 1.34 0 1 C0 0.67 0 0.34 0 0 Z " fill="#7BA03E" transform="translate(216,123)"/>
<path d="M0 0 C1.50820312 0.00773438 1.50820312 0.00773438 3.046875 0.015625 C14.45499916 0.13666611 14.45499916 0.13666611 19.125 3.25 C21.40412938 3.70394552 21.40412938 3.70394552 23.8125 3.875 C24.62074219 3.94976562 25.42898437 4.02453125 26.26171875 4.1015625 C26.87660156 4.15054688 27.49148437 4.19953125 28.125 4.25 C24.83824342 6.44117105 23.88950466 6.34652576 20.125 6.25 C19.465 6.58 18.805 6.91 18.125 7.25 C15.5234375 6.47265625 15.5234375 6.47265625 12.5 5.3125 C11.49710938 4.93222656 10.49421875 4.55195313 9.4609375 4.16015625 C8.69007813 3.85980469 7.91921875 3.55945313 7.125 3.25 C7.125 2.92 7.125 2.59 7.125 2.25 C4.29140156 2.19550772 1.45887515 2.15609267 -1.375 2.125 C-2.56222656 2.09986328 -2.56222656 2.09986328 -3.7734375 2.07421875 C-7.79077234 2.04128978 -11.33426361 2.24829515 -15.21875 3.3203125 C-18.70066805 4.205672 -19.6595699 4.26302001 -22.875 3.25 C-15.10330459 0.71985806 -8.15082872 -0.17114601 0 0 Z " fill="#AB843F" transform="translate(216.875,213.75)"/>
<path d="M0 0 C1 2 1 2 1 5 C1.99 4.67 2.98 4.34 4 4 C3.67 5.65 3.34 7.3 3 9 C2.01 9 1.02 9 0 9 C0 9.66 0 10.32 0 11 C4.95 10.67 9.9 10.34 15 10 C11.1533912 13.8466088 5.78091826 13.05641991 0.625 13.0625 C-1.25004775 13.04653244 -3.12508307 13.02730462 -5 13 C-6 11 -6 11 -5.29296875 8.65234375 C-4.92816406 7.75644531 -4.56335938 6.86054688 -4.1875 5.9375 C-3.83042969 5.03902344 -3.47335938 4.14054688 -3.10546875 3.21484375 C-2 1 -2 1 0 0 Z " fill="#53863A" transform="translate(154,158)"/>
<path d="M0 0 C-3.78625511 3.81703767 -7.86982772 3.57904238 -12.9375 3.75 C-13.73607422 3.79253906 -14.53464844 3.83507812 -15.35742188 3.87890625 C-18.64814388 4.02612994 -21.5405855 4.09563058 -24.77734375 3.421875 C-27.54767513 2.8960476 -29.02844102 3.46494556 -31.625 4.5 C-35.68174727 6.10608424 -35.68174727 6.10608424 -39 5 C-26.68866903 -0.50137566 -13.36949875 -3.08337148 0 0 Z " fill="#427D50" transform="translate(189,180)"/>
<path d="M0 0 C0.84409424 -0.00064453 1.68818848 -0.00128906 2.55786133 -0.00195312 C8.54370739 0.04875973 14.002302 0.66351364 19.8125 2.1875 C19.8125 2.5175 19.8125 2.8475 19.8125 3.1875 C19.16925781 3.1153125 18.52601563 3.043125 17.86328125 2.96875 C2.28461726 1.36865898 -11.7799771 1.15428316 -25.69140625 9.04296875 C-28.1875 10.1875 -28.1875 10.1875 -31.1875 9.1875 C-21.37025731 2.41975504 -11.81873718 -0.00924332 0 0 Z " fill="#A5B66B" transform="translate(191.1875,116.8125)"/>
<path d="M0 0 C2.18742014 3.2811302 2.54442806 5.33084356 3.125 9.1875 C3.29257813 10.27417969 3.46015625 11.36085937 3.6328125 12.48046875 C3.75398437 13.31191406 3.87515625 14.14335937 4 15 C4.66 14.67 5.32 14.34 6 14 C6.66 14.66 7.32 15.32 8 16 C7.9765625 18.3828125 7.9765625 18.3828125 7.625 21.125 C7.51414063 22.03507812 7.40328125 22.94515625 7.2890625 23.8828125 C7.19367188 24.58148438 7.09828125 25.28015625 7 26 C5.66666667 26 4.33333333 26 3 26 C2.67 24.02 2.34 22.04 2 20 C1.67 20 1.34 20 1 20 C0.67 17.36 0.34 14.72 0 12 C0.66 12 1.32 12 2 12 C1.77183594 11.38511719 1.54367188 10.77023438 1.30859375 10.13671875 C1.02113281 9.32847656 0.73367187 8.52023438 0.4375 7.6875 C0.14746094 6.88699219 -0.14257812 6.08648437 -0.44140625 5.26171875 C-1 3 -1 3 0 0 Z " fill="#318134" transform="translate(134,164)"/>
<path d="M0 0 C0 0.66 0 1.32 0 2 C-0.87140625 2.38929687 -1.7428125 2.77859375 -2.640625 3.1796875 C-11.62858187 7.40130361 -18.64778677 12.30760078 -26 19 C-27 16 -27 16 -27 14 C-26.113125 13.773125 -25.22625 13.54625 -24.3125 13.3125 C-20.52028229 11.80992317 -18.74983721 9.96692962 -16 7 C-13.37266169 4.77074325 -11.40303142 3.60768418 -8 3 C-8 2.34 -8 1.68 -8 1 C-5.10765685 0.17361624 -3.11257569 0 0 0 Z " fill="#B48F4F" transform="translate(150,110)"/>
<path d="M0 0 C1 2 1 2 0.44140625 3.9453125 C0.15136719 4.66460937 -0.13867188 5.38390625 -0.4375 6.125 C-0.72496094 6.84945312 -1.01242188 7.57390625 -1.30859375 8.3203125 C-1.53675781 8.87460938 -1.76492187 9.42890625 -2 10 C-2.99 10 -3.98 10 -5 10 C-5.66 11.65 -6.32 13.3 -7 15 C-7.66 14.67 -8.32 14.34 -9 14 C-9 12.35 -9 10.7 -9 9 C-11.97 8.505 -11.97 8.505 -15 8 C-11.82236695 5.88157796 -8.65496081 4.49278328 -5.15625 3 C-2.78445745 1.96691558 -2.78445745 1.96691558 0 0 Z " fill="#C39335" transform="translate(257,212)"/>
<path d="M0 0 C0.66 0 1.32 0 2 0 C3.32421875 1.6796875 3.32421875 1.6796875 4.6875 3.875 C5.37392578 4.95394531 5.37392578 4.95394531 6.07421875 6.0546875 C6.37972656 6.69664063 6.68523437 7.33859375 7 8 C6.67 8.66 6.34 9.32 6 10 C5.195625 9.814375 4.39125 9.62875 3.5625 9.4375 C2.716875 9.293125 1.87125 9.14875 1 9 C-0.44197868 10.44197868 -1.11786244 12.17691571 -2 14 C-2.33 13.01 -2.66 12.02 -3 11 C-5.01508358 10.26676204 -5.01508358 10.26676204 -7 10 C-7 9.34 -7 8.68 -7 8 C-1.52380952 3 -1.52380952 3 1 3 C0.67 2.01 0.34 1.02 0 0 Z " fill="#A2711E" transform="translate(240,118)"/>
<path d="M0 0 C6.5865728 4.74233242 10.2554525 10.33076042 13 18 C12.67 18.99 12.34 19.98 12 21 C11.62875 20.38125 11.2575 19.7625 10.875 19.125 C8.51377094 16.4489404 6.39868348 15.9063156 3 15 C3 14.01 3 13.02 3 12 C3.66 12 4.32 12 5 12 C5 11.01 5 10.02 5 9 C4.175 8.34 3.35 7.68 2.5 7 C1.675 6.34 0.85 5.68 0 5 C0 3.33333333 0 1.66666667 0 0 Z " fill="#8C612A" transform="translate(249,128)"/>
<path d="M0 0 C4.28769824 0.56232108 7.55942386 0.15996009 11.8125 -0.5 C12.8125 -0.5 12.8125 -0.5 15.8125 0.5 C11.56029738 4.75220262 4.15328836 5.37054331 -1.6484375 5.69140625 C-4.5012075 5.68801816 -7.33821269 5.63640205 -10.1875 5.5 C-10.1875 5.17 -10.1875 4.84 -10.1875 4.5 C-5.2375 3.84 -0.2875 3.18 4.8125 2.5 C-1.6225 2.995 -1.6225 2.995 -8.1875 3.5 C-7.5275 3.17 -6.8675 2.84 -6.1875 2.5 C-6.1875 1.84 -6.1875 1.18 -6.1875 0.5 C-3.1875 -0.5 -3.1875 -0.5 0 0 Z " fill="#5D8F4D" transform="translate(160.1875,166.5)"/>
<path d="M0 0 C0.33 0 0.66 0 1 0 C0.96519531 1.66289062 0.96519531 1.66289062 0.9296875 3.359375 C0.91092423 4.82290992 0.89272463 6.28645214 0.875 7.75 C0.85824219 8.47960937 0.84148437 9.20921875 0.82421875 9.9609375 C0.78927761 13.8044624 0.82500316 16.74606772 3 20 C2.01 20.66 1.02 21.32 0 22 C-0.33 21.34 -0.66 20.68 -1 20 C-1.33 22.97 -1.66 25.94 -2 29 C-2.33 29 -2.66 29 -3 29 C-3.18451025 12.29157175 -3.18451025 12.29157175 -2 4 C-1.34 4 -0.68 4 0 4 C0 2.68 0 1.36 0 0 Z " fill="#2A693C" transform="translate(136,180)"/>
<path d="M0 0 C0.66 0 1.32 0 2 0 C2 0.99 2 1.98 2 3 C2.99 2.34 3.98 1.68 5 1 C6.32 1 7.64 1 9 1 C8.67 2.32 8.34 3.64 8 5 C7.34 5 6.68 5 6 5 C5.67 6.65 5.34 8.3 5 10 C4.01 10 3.02 10 2 10 C1.01 11.485 1.01 11.485 0 13 C-0.66 13 -1.32 13 -2 13 C-2.19294408 8.17639811 -1.75747614 4.50353262 0 0 Z " fill="#6BA43B" transform="translate(140,155)"/>
<path d="M0 0 C-1 3 -1 3 -3.00390625 4.3515625 C-8.46003271 7.06713078 -12.90226615 8.66123701 -19 9 C-18 8 -17 7 -16 6 C-15.29875 5.13375 -14.5975 4.2675 -13.875 3.375 C-9.60137975 -0.15538195 -5.36904205 0 0 0 Z " fill="#70993E" transform="translate(196,211)"/>
<path d="M0 0 C-0.33 1.98 -0.66 3.96 -1 6 C-1.886875 5.731875 -2.77375 5.46375 -3.6875 5.1875 C-7.16327529 4.61637348 -7.16327529 4.61637348 -9.75 7.25 C-12.05203809 9.97235476 -12.05203809 9.97235476 -14 13 C-14 12.01 -14 11.02 -14 10 C-14.66 10 -15.32 10 -16 10 C-14.84826645 7.53199953 -13.95216435 5.95216435 -12 4 C-11.01 4 -10.02 4 -9 4 C-9 3.34 -9 2.68 -9 2 C-5.62902617 0.50178941 -3.79557881 0 0 0 Z " fill="#7FB931" transform="translate(180,138)"/>
<path d="M0 0 C4.32046898 1.41680244 7.00461199 3.53763785 10.3125 6.625 C11.19550781 7.44226563 12.07851562 8.25953125 12.98828125 9.1015625 C13.65214844 9.72804688 14.31601563 10.35453125 15 11 C11.78360346 12.74565111 9.67986596 13.204437 6 13 C5.01879536 9.94736336 5.01879536 8.05263664 6 5 C4.35 4.67 2.7 4.34 1 4 C0.67 2.68 0.34 1.36 0 0 Z " fill="#9F7734" transform="translate(227,106)"/>
<path d="M0 0 C6.4 -0.49230769 6.4 -0.49230769 9.4375 2 C10.2109375 2.99 10.2109375 2.99 11 4 C9.68 3.67 8.36 3.34 7 3 C6.5978125 4.2065625 6.5978125 4.2065625 6.1875 5.4375 C5.795625 6.283125 5.40375 7.12875 5 8 C4.01 8.33 3.02 8.66 2 9 C1.67 8.01 1.34 7.02 1 6 C0.34 6 -0.32 6 -1 6 C-0.67 4.02 -0.34 2.04 0 0 Z " fill="#6A3003" transform="translate(116,223)"/>
<path d="M0 0 C0.33 1.32 0.66 2.64 1 4 C-4.96412904 6.98206452 -14.54822678 5.2003299 -21 4 C-20.67 3.01 -20.34 2.02 -20 1 C-19.48695313 1.17273438 -18.97390625 1.34546875 -18.4453125 1.5234375 C-15.16689269 2.16236277 -12.20106172 1.88191917 -8.875 1.625 C-7.63492188 1.53476563 -6.39484375 1.44453125 -5.1171875 1.3515625 C-2.09729869 1.19204787 -2.09729869 1.19204787 0 0 Z " fill="#658648" transform="translate(197,200)"/>
<path d="M0 0 C1.62463842 -0.05395478 3.24978541 -0.09277195 4.875 -0.125 C5.77992187 -0.14820313 6.68484375 -0.17140625 7.6171875 -0.1953125 C10 0 10 0 12 2 C10.35 2 8.7 2 7 2 C6.67 3.98 6.34 5.96 6 8 C6.66 8 7.32 8 8 8 C8.33 9.32 8.66 10.64 9 12 C4.571587 9.7857935 2.42104782 7.30408501 0 3 C0 2.01 0 1.02 0 0 Z " fill="#542B11" transform="translate(109,221)"/>
<path d="M0 0 C3 0 3 0 4.51953125 1.21484375 C6.18874655 3.22759149 7.43000309 5.27030594 8.6875 7.5625 C9.12449219 8.34753906 9.56148437 9.13257813 10.01171875 9.94140625 C11 12 11 12 11 14 C7.96314367 13.67462254 7.04366334 13.04763274 4.9375 10.75 C0 3.74193548 0 3.74193548 0 0 Z " fill="#1A5235" transform="translate(137,221)"/>
<path d="M0 0 C1.14339844 0.08378906 2.28679687 0.16757813 3.46484375 0.25390625 C4.95571002 0.35704794 6.44659653 0.45989747 7.9375 0.5625 C9.06961914 0.64661133 9.06961914 0.64661133 10.22460938 0.73242188 C12.14745958 0.86176157 14.07389548 0.93516912 16 1 C16.33 0.67 16.66 0.34 17 0 C19.69082872 0.17635452 22.32851446 0.61835921 25 1 C19.96948894 4.35367404 15.0859437 4.13587777 9.1875 4.0625 C8.49462891 4.05798828 7.80175781 4.05347656 7.08789062 4.04882812 C5.39188932 4.03713156 3.69593297 4.01919924 2 4 C2.33 3.34 2.66 2.68 3 2 C2.01 1.34 1.02 0.68 0 0 Z " fill="#595E40" transform="translate(161,240)"/>
<path d="M0 0 C1.32 0 2.64 0 4 0 C4 0.66 4 1.32 4 2 C2.68 2.33 1.36 2.66 0 3 C0 3.66 0 4.32 0 5 C-1.0828125 5.0928125 -1.0828125 5.0928125 -2.1875 5.1875 C-5.8917339 6.25761202 -7.39445425 8.19903832 -10 11 C-11.64864545 12.35555293 -13.31003995 13.69631653 -15 15 C-14.690625 14.401875 -14.38125 13.80375 -14.0625 13.1875 C-12.89790296 10.91043228 -12.89790296 10.91043228 -12 8 C-11.34 7.690625 -10.68 7.38125 -10 7.0625 C-7.79394438 6.17972859 -7.79394438 6.17972859 -7.25 3.875 C-7.1675 3.25625 -7.085 2.6375 -7 2 C-6.030625 1.855625 -5.06125 1.71125 -4.0625 1.5625 C-1.13513227 1.32437659 -1.13513227 1.32437659 0 0 Z " fill="#9AB345" transform="translate(176,132)"/>
<path d="M0 0 C2.125 0.9375 2.125 0.9375 4 2 C3.27734375 3.95703125 3.27734375 3.95703125 2 6 C-0.05859375 6.57421875 -0.05859375 6.57421875 -2.4375 6.6875 C-5.28275042 6.85155892 -7.25718925 7.08572975 -10 8 C-10.33 6.68 -10.66 5.36 -11 4 C-10.37351563 3.79503906 -9.74703125 3.59007812 -9.1015625 3.37890625 C-8.28429687 3.10949219 -7.46703125 2.84007812 -6.625 2.5625 C-5.81289062 2.29566406 -5.00078125 2.02882812 -4.1640625 1.75390625 C-1.98968201 1.04820271 -1.98968201 1.04820271 0 0 Z " fill="#206F35" transform="translate(158,183)"/>
<path d="M0 0 C0 1.32 0 2.64 0 4 C-2.5 6.25 -2.5 6.25 -5 8 C-5.66 7.67 -6.32 7.34 -7 7 C-7.33 7 -7.66 7 -8 7 C-8.99 7 -9.98 7 -11 7 C-9.01217859 1.03653577 -6.16893105 -0.56081191 0 0 Z " fill="#B68024" transform="translate(238,240)"/>
<path d="M0 0 C2 2 2 2 2.1953125 4.6015625 C2.17210937 5.59929687 2.14890625 6.59703125 2.125 7.625 C2.10695312 8.62789062 2.08890625 9.63078125 2.0703125 10.6640625 C2.03550781 11.82035156 2.03550781 11.82035156 2 13 C1.21625 12.505 0.4325 12.01 -0.375 11.5 C-2.78552327 9.83462035 -2.78552327 9.83462035 -5 10 C-5.66 9.01 -6.32 8.02 -7 7 C-6.67 6.01 -6.34 5.02 -6 4 C-4.515 4.99 -4.515 4.99 -3 6 C-2.01 4.02 -1.02 2.04 0 0 Z " fill="#5A9833" transform="translate(130,162)"/>
<path d="M0 0 C0.33 0.99 0.66 1.98 1 3 C-0.43025194 4.65213589 -1.86945545 6.29652589 -3.3125 7.9375 C-4.11300781 8.85402344 -4.91351563 9.77054688 -5.73828125 10.71484375 C-8 13 -8 13 -11 14 C-11 12.02 -11 10.04 -11 8 C-9.68 8.33 -8.36 8.66 -7 9 C-7 7.35 -7 5.7 -7 4 C-6.01 4 -5.02 4 -4 4 C-1.81222534 2.0624994 -1.81222534 2.0624994 0 0 Z " fill="#62903E" transform="translate(199,145)"/>
<path d="M0 0 C1.96197921 1.89432475 3.77297438 3.65669297 5.28125 5.9375 C7.44660035 8.53592042 9.69324944 9.700035 12.6875 11.25 C13.68136719 11.77078125 14.67523438 12.2915625 15.69921875 12.828125 C16.83810547 13.40820312 16.83810547 13.40820312 18 14 C17.01 14.66 16.02 15.32 15 16 C12.36 14.35 9.72 12.7 7 11 C6.67 11.66 6.34 12.32 6 13 C2.49656462 9.49656462 1.51034527 4.6389176 0 0 Z " fill="#437357" transform="translate(143,224)"/>
<path d="M0 0 C2.64 0 5.28 0 8 0 C5 2 5 2 3.0078125 2.91796875 C-1.90775636 5.56702045 -5.40523289 10.73726854 -7 16 C-7.66 15.67 -8.32 15.34 -9 15 C-8.67 11.7 -8.34 8.4 -8 5 C-6.515 5.99 -6.515 5.99 -5 7 C-1.75348408 3.82662252 -1.75348408 3.82662252 0 0 Z " fill="#094A24" transform="translate(142,194)"/>
<path d="M0 0 C0.33 0 0.66 0 1 0 C1.13810221 7.04321257 0.5988915 13.98441385 0 21 C0.66 21.33 1.32 21.66 2 22 C0.35 22.99 -1.3 23.98 -3 25 C-2.88553375 21.95760755 -2.75879267 18.91655331 -2.625 15.875 C-2.5940625 15.0190625 -2.563125 14.163125 -2.53125 13.28125 C-2.31114982 8.5124128 -1.80839517 4.48423193 0 0 Z " fill="#497935" transform="translate(145,167)"/>
<path d="M0 0 C-5.94655054 4.30612281 -13.71477353 6.27715535 -21 6 C-21 5.34 -21 4.68 -21 4 C-19.865625 3.690625 -18.73125 3.38125 -17.5625 3.0625 C-14.21224901 2.37075469 -14.21224901 2.37075469 -13 1 C-11.38660441 0.57785707 -9.75847585 0.2111646 -8.125 -0.125 C-7.24070313 -0.31320312 -6.35640625 -0.50140625 -5.4453125 -0.6953125 C-3 -1 -3 -1 0 0 Z " fill="#865F24" transform="translate(214,257)"/>
<path d="M0 0 C4.54805635 -0.17835515 7.8794254 0.00214565 12 2 C12 2.66 12 3.32 12 4 C12.99 4.33 13.98 4.66 15 5 C9.21408489 5.10477512 3.70690634 4.99250545 -2 4 C-1.34 2.68 -0.68 1.36 0 0 Z " fill="#8D5715" transform="translate(171,257)"/>
<path d="M0 0 C1.9375 0.375 1.9375 0.375 4 1 C5.35439668 3.70879335 5.06501451 6.00933268 5 9 C4.01 9.33 3.02 9.66 2 10 C0.78130071 12.50447516 0.78130071 12.50447516 0 15 C-0.66 14.67 -1.32 14.34 -2 14 C-1.7834375 13.0409375 -1.7834375 13.0409375 -1.5625 12.0625 C-0.82763202 8.06155212 -0.41418889 4.04495104 0 0 Z " fill="#9BBB39" transform="translate(203,190)"/>
<path d="M0 0 C3.48126921 1.3586968 6.88148501 2.81879744 10.25 4.4375 C11.12140625 4.84871094 11.9928125 5.25992188 12.890625 5.68359375 C15 7 15 7 16 10 C14.04020573 9.71831703 12.08217622 9.42433283 10.125 9.125 C9.03445312 8.96257812 7.94390625 8.80015625 6.8203125 8.6328125 C4 8 4 8 2 6 C1.6278958 4.67696283 1.29369827 3.34262065 1 2 C0.67 1.34 0.34 0.68 0 0 Z " fill="#603F1A" transform="translate(136,232)"/>
<path d="M0 0 C3 0 3 0 5 1 C4.21625 1.7425 3.4325 2.485 2.625 3.25 C-1.09861001 7.15092477 -2.20291631 9.90360654 -2.625 15.25 C-2.73714844 16.58804688 -2.73714844 16.58804688 -2.8515625 17.953125 C-2.90054688 18.62859375 -2.94953125 19.3040625 -3 20 C-3.33 20 -3.66 20 -4 20 C-4.34179688 16.97265625 -4.34179688 16.97265625 -4.68359375 13.9453125 C-4.91292961 11.92595684 -4.91292961 11.92595684 -6 10 C-5.29296875 8.125 -5.29296875 8.125 -4.1875 6 C-3.83042969 5.29875 -3.47335938 4.5975 -3.10546875 3.875 C-2 2 -2 2 0 0 Z " fill="#3B644A" transform="translate(140,200)"/>
<path d="M0 0 C0.99 0.66 1.98 1.32 3 2 C3 2.66 3 3.32 3 4 C1.46875 5.2890625 1.46875 5.2890625 -0.5 6.625 C-1.1496875 7.07101563 -1.799375 7.51703125 -2.46875 7.9765625 C-3.22671875 8.48316406 -3.22671875 8.48316406 -4 9 C-5.51953125 7.66796875 -5.51953125 7.66796875 -7 6 C-6.6875 3.3125 -6.6875 3.3125 -6 1 C-4.7934375 1.0309375 -4.7934375 1.0309375 -3.5625 1.0625 C-1.06645115 1.29633621 -1.06645115 1.29633621 0 0 Z " fill="#AB7523" transform="translate(238,117)"/>
<path d="M0 0 C0 1.65 0 3.3 0 5 C-0.66 5 -1.32 5 -2 5 C-2.66 6.65 -3.32 8.3 -4 10 C-5.99097846 7.01353231 -6.94124926 4.40312738 -8 1 C-5.29120665 -0.35439668 -2.99066732 -0.06501451 0 0 Z " fill="#83B835" transform="translate(126,152)"/>
<path d="M0 0 C5.90693899 0.30291995 10.65233838 3.11608895 15 7 C15 7.99 15 8.98 15 10 C14.34 9.67 13.68 9.34 13 9 C13.185625 9.7425 13.37125 10.485 13.5625 11.25 C13.99203108 13.94990963 13.85122974 15.44631077 13 18 C12.34 17.67 11.68 17.34 11 17 C11.06510417 15.046875 11.13020833 13.09375 11.1953125 11.140625 C10.96102272 8.57280902 10.45751473 7.13294839 9 5 C6.84255767 3.66653971 6.84255767 3.66653971 4.375 2.75 C3.55773437 2.41484375 2.74046875 2.0796875 1.8984375 1.734375 C1.27195313 1.49203125 0.64546875 1.2496875 0 1 C0 0.67 0 0.34 0 0 Z " fill="#75A44E" transform="translate(190,181)"/>
<path d="M0 0 C2.9787979 0.33097754 5.35930766 0.6073176 7.9375 2.1875 C9.551632 4.94101929 8.73199739 7.00546522 8 10 C7.34 10 6.68 10 6 10 C4.515 7.03 4.515 7.03 3 4 C2.01 4 1.02 4 0 4 C0 2.68 0 1.36 0 0 Z " fill="#78A73B" transform="translate(128,153)"/>
<path d="M0 0 C1.34209166 2.68418333 0.63233676 4.11935477 0 7 C0 7.99 0 8.98 0 10 C0 10.66 0 11.32 0 12 C-1.98 12.99 -3.96 13.98 -6 15 C-5.814375 14.05125 -5.62875 13.1025 -5.4375 12.125 C-4.71313368 9.10131207 -4.71313368 9.10131207 -6 7 C-5.071875 6.1028125 -5.071875 6.1028125 -4.125 5.1875 C-1.86323046 2.99188856 -1.86323046 2.99188856 0 0 Z " fill="#5CA134" transform="translate(159,150)"/>
<path d="M0 0 C1.9375 0.8125 1.9375 0.8125 4 2 C4.97608217 4.92824652 5.08226668 6.95613276 5 10 C2 10 2 10 0.3125 8.875 C-1.55219419 6.21115115 -1.27580792 4.17179104 -1 1 C-0.67 0.67 -0.34 0.34 0 0 Z " fill="#0E6D36" transform="translate(142,215)"/>
<path d="M0 0 C1.65 0.33 3.3 0.66 5 1 C5 1.33 5 1.66 5 2 C9.29 2.33 13.58 2.66 18 3 C18 3.33 18 3.66 18 4 C15.29216168 4.22314035 12.58481976 4.42889462 9.875 4.625 C9.11445313 4.68945312 8.35390625 4.75390625 7.5703125 4.8203125 C2.88675858 5.14331622 -0.57646619 4.85138316 -5 3 C-5.33 3.99 -5.66 4.98 -6 6 C-6.33 4.35 -6.66 2.7 -7 1 C-4.03 1.495 -4.03 1.495 -1 2 C-0.67 1.34 -0.34 0.68 0 0 Z " fill="#327036" transform="translate(155,216)"/>
<path d="M0 0 C0.33 0 0.66 0 1 0 C2.34588235 7.34117647 2.34588235 7.34117647 0.6875 10.5 C-1 12 -1 12 -3 12 C-3.33 13.65 -3.66 15.3 -4 17 C-4.66 17 -5.32 17 -6 17 C-5.566875 15.7625 -5.566875 15.7625 -5.125 14.5 C-3.90101549 10.69204819 -2.9383118 6.88729173 -2 3 C-1.34 3 -0.68 3 0 3 C0 2.01 0 1.02 0 0 Z " fill="#572A0B" transform="translate(249,190)"/>
<path d="M0 0 C-0.99 1.98 -1.98 3.96 -3 6 C-3.99 5.67 -4.98 5.34 -6 5 C-6 5.66 -6 6.32 -6 7 C-6.99 6.67 -7.98 6.34 -9 6 C-9.6875 3.9375 -9.6875 3.9375 -10 2 C-3.375 -1.125 -3.375 -1.125 0 0 Z " fill="#45902F" transform="translate(179,161)"/>
<path d="M0 0 C7.425 0.99 7.425 0.99 15 2 C15 2.33 15 2.66 15 3 C13.35 3 11.7 3 10 3 C10 3.66 10 4.32 10 5 C10.66 5 11.32 5 12 5 C11.67 5.66 11.34 6.32 11 7 C9.68 7 8.36 7 7 7 C7 6.34 7 5.68 7 5 C6.01 5 5.02 5 4 5 C2.68 3.35 1.36 1.7 0 0 Z " fill="#509236" transform="translate(160,200)"/>
<path d="M0 0 C3.96 0 7.92 0 12 0 C12.66 1.32 13.32 2.64 14 4 C13.34 4.66 12.68 5.32 12 6 C9.375 5.625 9.375 5.625 7 5 C7 4.01 7 3.02 7 2 C5.02 2 3.04 2 1 2 C0.67 1.34 0.34 0.68 0 0 Z " fill="#7AB733" transform="translate(182,206)"/>
<path d="M0 0 C0.99 0.33 1.98 0.66 3 1 C0.36 3.64 -2.28 6.28 -5 9 C-7.31 8.01 -9.62 7.02 -12 6 C-9.4312405 4.56149468 -7.18879696 3.78001273 -4.3125 3 C-3.219375 2.67 -2.12625 2.34 -1 2 C-0.67 1.34 -0.34 0.68 0 0 Z " fill="#935E18" transform="translate(192,239)"/>
<path d="M0 0 C0.33 0 0.66 0 1 0 C1.6015813 4.81265042 1.18879636 7.2776214 -1.6875 11.25 C-4.13140841 14.24538418 -6.45645626 16.33245001 -10 18 C-9.8125 16.125 -9.8125 16.125 -9 14 C-8.195625 13.731875 -7.39125 13.46375 -6.5625 13.1875 C-5.716875 12.795625 -4.87125 12.40375 -4 12 C-2.72632589 8.66783981 -2.72632589 8.66783981 -2 5 C-1.35800351 3.32367583 -0.70105843 1.65249487 0 0 Z " fill="#8CA73A" transform="translate(206,195)"/>
<path d="M0 0 C1 2 1 2 0.51171875 4.05859375 C0.23972656 4.84363281 -0.03226563 5.62867188 -0.3125 6.4375 C-0.57675781 7.21996094 -0.84101563 8.00242188 -1.11328125 8.80859375 C-2 11 -2 11 -4 14 C-4.33 14.99 -4.66 15.98 -5 17 C-5.66 17 -6.32 17 -7 17 C-6.55611974 11.37751674 -4.09800282 4.09800282 0 0 Z " fill="#87A84D" transform="translate(148,138)"/>
<path d="M0 0 C3.94264882 1.31421627 6.33956629 2.78913173 9 6 C10.44475395 8.96174561 11 10.68733553 11 14 C9.16056628 12.04709472 7.32840869 10.08818082 5.5 8.125 C4.97535156 7.56941406 4.45070312 7.01382813 3.91015625 6.44140625 C0 2.2265625 0 2.2265625 0 0 Z " fill="#A07D43" transform="translate(225,120)"/>
<path d="M0 0 C4.29 0.33 8.58 0.66 13 1 C13 1.33 13 1.66 13 2 C9.7 2.33 6.4 2.66 3 3 C6.19990508 5.74277578 9.00499382 7.6302836 13 9 C11.375 9.75 11.375 9.75 9 10 C5.17759622 7.89377751 2.26146393 5.76910655 0 2 C0 1.34 0 0.68 0 0 Z " fill="#6A400C" transform="translate(157,224)"/>
<path d="M0 0 C2.375 0.1875 2.375 0.1875 5 1 C6.3125 3.5625 6.3125 3.5625 7 6 C5.68 6.99 4.36 7.98 3 9 C3 8.34 3 7.68 3 7 C2.01 6.34 1.02 5.68 0 5 C-0.1875 2.375 -0.1875 2.375 0 0 Z " fill="#045F2A" transform="translate(192,183)"/>
<path d="M0 0 C1.32 0.33 2.64 0.66 4 1 C4 1.66 4 2.32 4 3 C4.99 3 5.98 3 7 3 C7 3.66 7 4.32 7 5 C5.5839401 5.79275148 4.16712447 6.58415312 2.75 7.375 C1.56664062 8.03628906 1.56664062 8.03628906 0.359375 8.7109375 C-1.73914197 9.85747823 -3.8536077 10.94649552 -6 12 C-3.9042956 7.91889144 -1.98274056 6.20098821 2 4 C2.33 3.34 2.66 2.68 3 2 C2.01 1.67 1.02 1.34 0 1 C0 0.67 0 0.34 0 0 Z " fill="#839E46" transform="translate(216,123)"/>
<path d="M0 0 C0.66 0.33 1.32 0.66 2 1 C2 1.66 2 2.32 2 3 C0.35178756 4.03013277 -1.31503702 5.03114628 -3 6 C-3 6.33 -3 6.66 -3 7 C-3.86625 7.226875 -4.7325 7.45375 -5.625 7.6875 C-9.61778814 9.24025095 -11.84248305 11.14319895 -15 14 C-12.6791243 8.58462337 -8.99812543 5.87392212 -4 3 C-2.65368175 2.01755155 -1.31558703 1.02323436 0 0 Z " fill="#B8954F" transform="translate(132,110)"/>
<path d="M0 0 C0.99 0.33 1.98 0.66 3 1 C2.69381595 4.67420866 2.24228216 5.78135513 -0.5625 8.3125 C-1.366875 8.869375 -2.17125 9.42625 -3 10 C-3.33 9.01 -3.66 8.02 -4 7 C-3.34 7 -2.68 7 -2 7 C-2.04125 6.21625 -2.0825 5.4325 -2.125 4.625 C-2 2 -2 2 0 0 Z " fill="#B5893E" transform="translate(242,232)"/>
<path d="M0 0 C4.95 0.99 9.9 1.98 15 3 C14.67 3.66 14.34 4.32 14 5 C12.06183265 4.8858134 10.12444901 4.75826577 8.1875 4.625 C7.10855469 4.55539063 6.02960938 4.48578125 4.91796875 4.4140625 C2 4 2 4 -1 2 C-0.67 1.34 -0.34 0.68 0 0 Z " fill="#1D4B25" transform="translate(163,237)"/>
<path d="M0 0 C2.475 0.495 2.475 0.495 5 1 C5 1.66 5 2.32 5 3 C5.99 3.33 6.98 3.66 8 4 C8.6875 6.0625 8.6875 6.0625 9 8 C8.071875 7.835 7.14375 7.67 6.1875 7.5 C3.04378647 6.92251612 3.04378647 6.92251612 0 7 C0.33 6.38125 0.66 5.7625 1 5.125 C2.14193235 3.08981656 2.14193235 3.08981656 2 1 C1.34 0.67 0.68 0.34 0 0 Z " fill="#8BAB48" transform="translate(126,147)"/>
<path d="M0 0 C1 2 1 2 0.109375 4.78515625 C-0.33921875 5.86667969 -0.7878125 6.94820312 -1.25 8.0625 C-1.68828125 9.14660156 -2.1265625 10.23070312 -2.578125 11.34765625 C-4 14 -4 14 -7 15 C-5.51298598 9.19839226 -4.27495594 4.42236821 0 0 Z " fill="#AA7E46" transform="translate(262,205)"/>
<path d="M0 0 C0.33 0.66 0.66 1.32 1 2 C1.66 2 2.32 2 3 2 C3.53030068 4.43578787 4.04952312 6.87305975 4.5625 9.3125 C4.71396484 10.00279297 4.86542969 10.69308594 5.02148438 11.40429688 C5.71761569 14.75544066 6.10155309 16.69534072 5 20 C4.1572257 17.60712296 3.32562998 15.21128981 2.5 12.8125 C2.26152344 12.13896484 2.02304688 11.46542969 1.77734375 10.77148438 C0.51272408 7.06795533 -0.30451221 3.92059464 0 0 Z " fill="#624311" transform="translate(99,192)"/>
<path d="M0 0 C3.9047619 3.9047619 3.9047619 3.9047619 4.25 7.875 C3.97556644 11.30541954 3.40590072 12.59409928 1 15 C0.34 15 -0.32 15 -1 15 C-1 14.34 -1 13.68 -1 13 C-0.34 13 0.32 13 1 13 C0.67 8.71 0.34 4.42 0 0 Z " fill="#166519" transform="translate(198,185)"/>
<path d="M0 0 C0 3.41987028 -0.47254343 5.94508687 -2 9 C-2.66 9 -3.32 9 -4 9 C-4.33 9.66 -4.66 10.32 -5 11 C-5.3125 8.3125 -5.3125 8.3125 -5 5 C-2.5 2.125 -2.5 2.125 0 0 Z M3 1 C3 1.99 3 2.98 3 4 C2.01 4 1.02 4 0 4 C0.99 3.01 1.98 2.02 3 1 Z " fill="#96C231" transform="translate(156,131)"/>
<path d="M0 0 C0 3.54709938 -0.57762678 4.01780191 -2.875 6.5625 C-3.40867187 7.16191406 -3.94234375 7.76132813 -4.4921875 8.37890625 C-5.63671654 9.60942322 -6.81169896 10.81169896 -8 12 C-8 6.13333333 -8 6.13333333 -7 4 C-4.74976511 2.4205082 -2.46253428 1.25365381 0 0 Z " fill="#A48845" transform="translate(122,129)"/>
<path d="M0 0 C0.99 0.66 1.98 1.32 3 2 C-0.66291938 4.47785723 -3.6109185 5.48964169 -8 6 C-8.66 4.68 -9.32 3.36 -10 2 C-8.68 2.33 -7.36 2.66 -6 3 C-6 2.34 -6 1.68 -6 1 C-3.03 1.495 -3.03 1.495 0 2 C0 1.34 0 0.68 0 0 Z " fill="#986218" transform="translate(200,256)"/>
<path d="M0 0 C2.54290566 3.81435849 3.1537534 6.44920185 3.1875 10.9375 C3.20167969 11.79214844 3.21585938 12.64679688 3.23046875 13.52734375 C2.98703556 16.13909303 2.3178268 17.75500652 1 20 C0.67 17.36 0.34 14.72 0 12 C0.66 12 1.32 12 2 12 C1.77183594 11.38511719 1.54367188 10.77023438 1.30859375 10.13671875 C1.02113281 9.32847656 0.73367187 8.52023438 0.4375 7.6875 C0.14746094 6.88699219 -0.14257812 6.08648437 -0.44140625 5.26171875 C-1 3 -1 3 0 0 Z " fill="#437F2E" transform="translate(134,164)"/>
<path d="M0 0 C1.65 0.33 3.3 0.66 5 1 C4.67 3.64 4.34 6.28 4 9 C3.67 8.34 3.34 7.68 3 7 C1.35 7.33 -0.3 7.66 -2 8 C-1.34 5.36 -0.68 2.72 0 0 Z " fill="#B7872E" transform="translate(110,134)"/>
<path d="M0 0 C1.6396875 0.2475 1.6396875 0.2475 3.3125 0.5 C6.46940337 0.92805469 8.09071117 1.04734398 11 0 C10.0625 2 10.0625 2 8 4 C4.97465051 4.36475845 2.03336186 4.22893297 -1 4 C-1 1 -1 1 0 0 Z " fill="#92601F" transform="translate(179,232)"/>
<path d="M0 0 C-2.31 0.66 -4.62 1.32 -7 2 C-7 2.66 -7 3.32 -7 4 C-10.4352048 6.29013653 -11.985331 6.17842973 -16 6 C-13.63078826 3.28787603 -11.32893261 2.07761003 -8 0.75 C-7.13375 0.39421875 -6.2675 0.0384375 -5.375 -0.328125 C-3 -1 -3 -1 0 0 Z " fill="#BF9342" transform="translate(156,100)"/>
<path d="M0 0 C1.423125 0.2784375 1.423125 0.2784375 2.875 0.5625 C5.89868793 1.28686632 5.89868793 1.28686632 8 0 C8.99 0.66 9.98 1.32 11 2 C9.1875 4 9.1875 4 7 6 C6.01 6 5.02 6 4 6 C3.67 5.01 3.34 4.02 3 3 C1.50014391 1.33289654 1.50014391 1.33289654 0 0 Z " fill="#774B18" transform="translate(145,240)"/>
<path d="M0 0 C0.33 0.66 0.66 1.32 1 2 C0.01 3.485 0.01 3.485 -1 5 C-1.66158043 7.04584079 -1.66158043 7.04584079 -2.125 9.1875 C-2.41375 10.445625 -2.7025 11.70375 -3 13 C-3.66 12.67 -4.32 12.34 -5 12 C-5.66 12.66 -6.32 13.32 -7 14 C-6.625 11.0625 -6.625 11.0625 -6 8 C-5.34 7.67 -4.68 7.34 -4 7 C-2.88365848 5.34948712 -2.88365848 5.34948712 -1.875 3.4375 C-1.25625 2.303125 -0.6375 1.16875 0 0 Z " fill="#619836" transform="translate(152,152)"/>
<path d="M0 0 C0.99 0 1.98 0 3 0 C3.33 1.65 3.66 3.3 4 5 C3.01 5.66 2.02 6.32 1 7 C0.01 6.01 -0.98 5.02 -2 4 C-1.34 2.68 -0.68 1.36 0 0 Z " fill="#66A72E" transform="translate(125,162)"/>
<path d="M0 0 C-0.66 1.32 -1.32 2.64 -2 4 C-4.31 4 -6.62 4 -9 4 C-9 3.34 -9 2.68 -9 2 C-5.5647952 -0.29013653 -4.014669 -0.17842973 0 0 Z " fill="#0F7331" transform="translate(157,189)"/>
<path d="M0 0 C0.68359375 1.671875 0.68359375 1.671875 1 4 C-0.21484375 6.578125 -0.21484375 6.578125 -1.9375 9.25 C-2.50339844 10.14203125 -3.06929687 11.0340625 -3.65234375 11.953125 C-4.09707031 12.62859375 -4.54179687 13.3040625 -5 14 C-5.33 13.01 -5.66 12.02 -6 11 C-5.34 10.01 -4.68 9.02 -4 8 C-3.61500109 6.34450469 -3.27206865 4.6777567 -3 3 C-2.34 3 -1.68 3 -1 3 C-0.67 2.01 -0.34 1.02 0 0 Z " fill="#789C4A" transform="translate(156,146)"/>
<path d="M0 0 C0.33 1.65 0.66 3.3 1 5 C-1.31 5.66 -3.62 6.32 -6 7 C-5.6875 4.625 -5.6875 4.625 -5 2 C-2 0 -2 0 0 0 Z " fill="#71AF31" transform="translate(148,151)"/>
<path d="M0 0 C0.66 0.33 1.32 0.66 2 1 C0.37829621 2.00533667 -1.24747237 3.00411907 -2.875 4 C-4.23238281 4.8353125 -4.23238281 4.8353125 -5.6171875 5.6875 C-8 7 -8 7 -10 7 C-9.67 6.01 -9.34 5.02 -9 4 C-8.34 4 -7.68 4 -7 4 C-6.67 3.34 -6.34 2.68 -6 2 C-5.01 2.33 -4.02 2.66 -3 3 C-3 2.34 -3 1.68 -3 1 C-2.01 0.67 -1.02 0.34 0 0 Z " fill="#9B7A44" transform="translate(229,248)"/>
<path d="M0 0 C-2.81561667 1.47209182 -5.61973839 2.65726818 -8.625 3.6875 C-9.40101563 3.95949219 -10.17703125 4.23148438 -10.9765625 4.51171875 C-13 5 -13 5 -15 4 C-9.70610571 0.61778976 -6.26548367 -0.14239736 0 0 Z " fill="#2A672D" transform="translate(158,198)"/>
<path d="M0 0 C0.99 0 1.98 0 3 0 C3 0.66 3 1.32 3 2 C6.96 2.33 10.92 2.66 15 3 C15 3.33 15 3.66 15 4 C9.21408489 4.10477512 3.70690634 3.99250545 -2 3 C-1.34 2.01 -0.68 1.02 0 0 Z " fill="#1F6939" transform="translate(145,191)"/>
<path d="M0 0 C0.66 0.33 1.32 0.66 2 1 C-1.12621626 4.39417765 -3.56541027 6.6062718 -8 8 C-8.33 7.01 -8.66 6.02 -9 5 C-6 3 -6 3 -2 3 C-1.34 2.01 -0.68 1.02 0 0 Z " fill="#B1852F" transform="translate(122,126)"/>
<path d="M0 0 C0 1.32 0 2.64 0 4 C-1.32 4 -2.64 4 -4 4 C-4 3.34 -4 2.68 -4 2 C-5.32 1.67 -6.64 1.34 -8 1 C-3.375 -1.125 -3.375 -1.125 0 0 Z " fill="#AC7324" transform="translate(208,218)"/>
<path d="M0 0 C0.99 0.99 1.98 1.98 3 3 C2.01 5.31 1.02 7.62 0 10 C-0.66 9.67 -1.32 9.34 -2 9 C-1.41196203 5.97580475 -0.77321882 2.98241547 0 0 Z " fill="#9ECA36" transform="translate(203,195)"/>
<path d="M0 0 C0.99 0.66 1.98 1.32 3 2 C-4.42857143 6.42857143 -4.42857143 6.42857143 -8 7 C-5.61042731 3.75700849 -3.7952131 1.49097658 0 0 Z " fill="#8DB93B" transform="translate(180,133)"/>
<path d="M0 0 C2.92540704 0.62687294 5.4835249 1.35127493 8 3 C8.33 4.32 8.66 5.64 9 7 C5.7 5.35 2.4 3.7 -1 2 C-0.67 1.34 -0.34 0.68 0 0 Z " fill="#A88742" transform="translate(209,110)"/>
<path d="M0 0 C3.3 0 6.6 0 10 0 C10.33 1.32 10.66 2.64 11 4 C9.53984709 3.71758359 8.08190207 3.42373386 6.625 3.125 C5.81289062 2.96257812 5.00078125 2.80015625 4.1640625 2.6328125 C2 2 2 2 0 0 Z " fill="#693907" transform="translate(150,256)"/>
<path d="M0 0 C3 1.25 3 1.25 5 4.25 C0.78087253 3.7705537 -1.79663178 3.08374881 -5 0.25 C-3 -0.75 -3 -0.75 0 0 Z " fill="#653C1B" transform="translate(144,251.75)"/>
<path d="M0 0 C2.375 0.6875 2.375 0.6875 5 2 C6.3125 4.625 6.3125 4.625 7 7 C6.01 7.33 5.02 7.66 4 8 C1.82467143 5.82467143 1.6337746 4.89725531 1 2 C0.67 1.34 0.34 0.68 0 0 Z " fill="#6A4821" transform="translate(136,232)"/>
<path d="M0 0 C0.66 0.33 1.32 0.66 2 1 C2.38218767 2.65614657 2.71395102 4.32457024 3 6 C3.33 6.66 3.66 7.32 4 8 C1.13275314 7.42655063 0.1385485 7.1385485 -2 5 C-1 2 -1 2 0 0 Z " fill="#592C13" transform="translate(122,233)"/>
<path d="M0 0 C1.60294922 0.15275391 1.60294922 0.15275391 3.23828125 0.30859375 C4.45064453 0.43427734 4.45064453 0.43427734 5.6875 0.5625 C5.6875 0.8925 5.6875 1.2225 5.6875 1.5625 C2.0575 1.5625 -1.5725 1.5625 -5.3125 1.5625 C-5.6425 2.2225 -5.9725 2.8825 -6.3125 3.5625 C-8.7875 2.5725 -8.7875 2.5725 -11.3125 1.5625 C-11.3125 1.2325 -11.3125 0.9025 -11.3125 0.5625 C-7.36602382 -0.42594951 -4.03857036 -0.39941905 0 0 Z " fill="#689E37" transform="translate(187.3125,204.4375)"/>
<path d="M0 0 C0.33 1.32 0.66 2.64 1 4 C-0.32 4.33 -1.64 4.66 -3 5 C-3 4.34 -3 3.68 -3 3 C-3.99 3.33 -4.98 3.66 -6 4 C-8.6875 3.5625 -8.6875 3.5625 -11 3 C-11 2.67 -11 2.34 -11 2 C-10.06027344 1.90912109 -10.06027344 1.90912109 -9.1015625 1.81640625 C-7.87566406 1.69072266 -7.87566406 1.69072266 -6.625 1.5625 C-5.81289062 1.48128906 -5.00078125 1.40007812 -4.1640625 1.31640625 C-1.95727195 1.10909886 -1.95727195 1.10909886 0 0 Z " fill="#4C7B32" transform="translate(197,200)"/>
<path d="M0 0 C2.64 0.33 5.28 0.66 8 1 C4.55549263 3.29633824 2.06187717 3.54016485 -2 4 C-1.34 2.68 -0.68 1.36 0 0 Z " fill="#6D6040" transform="translate(178,240)"/>
<path d="M0 0 C2.31 0 4.62 0 7 0 C6.67 0.66 6.34 1.32 6 2 C3.4375 2.625 3.4375 2.625 1 3 C1 3.99 1 4.98 1 6 C0.34 6 -0.32 6 -1 6 C-0.67 4.02 -0.34 2.04 0 0 Z " fill="#623309" transform="translate(116,223)"/>
<path d="M0 0 C0.66 0.33 1.32 0.66 2 1 C1.67 2.65 1.34 4.3 1 6 C-0.65 6 -2.3 6 -4 6 C-1.125 1.125 -1.125 1.125 0 0 Z " fill="#6B411F" transform="translate(236,211)"/>
<path d="M0 0 C0.66 0.33 1.32 0.66 2 1 C-2.75 5.875 -2.75 5.875 -5 7 C-5.6875 5.1875 -5.6875 5.1875 -6 3 C-4.04862098 0.26806937 -3.44686768 0 0 0 Z " fill="#446A50" transform="translate(143,200)"/>
<path d="M0 0 C0.33 0 0.66 0 1 0 C1 2.64 1 5.28 1 8 C-2.65316671 6.75023244 -3.78065836 6.32901247 -6 3 C-3 3 -3 3 -1 4 C-0.67 2.68 -0.34 1.36 0 0 Z " fill="#45732D" transform="translate(132,169)"/>
<path d="M0 0 C1 2 1 2 0.44140625 3.9453125 C0.15136719 4.66460937 -0.13867188 5.38390625 -0.4375 6.125 C-0.72496094 6.84945312 -1.01242188 7.57390625 -1.30859375 8.3203125 C-1.53675781 8.87460938 -1.76492187 9.42890625 -2 10 C-3.32 9.67 -4.64 9.34 -6 9 C-6 7 -6 7 -4.125 5.0625 C-3.42375 4.381875 -2.7225 3.70125 -2 3 C-1.34 2.01 -0.68 1.02 0 0 Z " fill="#709C3D" transform="translate(159,150)"/>
<path d="M0 0 C3.63 0.33 7.26 0.66 11 1 C10.67 1.66 10.34 2.32 10 3 C8.88625 2.979375 7.7725 2.95875 6.625 2.9375 C3.16784079 2.73619282 3.16784079 2.73619282 1 4 C0.67 2.68 0.34 1.36 0 0 Z " fill="#805012" transform="translate(155,244)"/>
<path d="M0 0 C1.32 0.66 2.64 1.32 4 2 C1.03 4.475 1.03 4.475 -2 7 C-2.66 6.67 -3.32 6.34 -4 6 C-2.68 4.02 -1.36 2.04 0 0 Z " fill="#A78145" transform="translate(235,241)"/>
<path d="M0 0 C2.46800047 1.15173355 4.04783565 2.04783565 6 4 C5.67 4.99 5.34 5.98 5 7 C2.5 5.1875 2.5 5.1875 0 3 C0 2.01 0 1.02 0 0 Z " fill="#14633B" transform="translate(151,229)"/>
<path d="M0 0 C2.88437779 1.29299694 4.87219421 2.65941363 7 5 C6.01 5 5.02 5 4 5 C4.33 5.99 4.66 6.98 5 8 C4.34 8 3.68 8 3 8 C1.92474806 5.34771188 0.90543849 2.71631546 0 0 Z " fill="#724A27" transform="translate(129,227)"/>
<path d="M0 0 C0.33 0.66 0.66 1.32 1 2 C-0.25 5.0625 -0.25 5.0625 -2 8 C-2.99 8.33 -3.98 8.66 -5 9 C-5 8.34 -5 7.68 -5 7 C-4.34 7 -3.68 7 -3 7 C-3 6.34 -3 5.68 -3 5 C-3.66 4.67 -4.32 4.34 -5 4 C-3.35 2.68 -1.7 1.36 0 0 Z " fill="#CB9844" transform="translate(257,212)"/>
<path d="M0 0 C6.625 0.75 6.625 0.75 10 3 C3.25 2.125 3.25 2.125 1 1 C1.33 2.98 1.66 4.96 2 7 C0.4375 5.75 0.4375 5.75 -1 4 C-0.6875 1.8125 -0.6875 1.8125 0 0 Z " fill="#0F5525" transform="translate(147,216)"/>
<path d="M0 0 C0.99 0 1.98 0 3 0 C3 0.66 3 1.32 3 2 C4.32 2.33 5.64 2.66 7 3 C5.35 4.32 3.7 5.64 2 7 C0 5 0 5 -0.125 2.375 C-0.08375 1.59125 -0.0425 0.8075 0 0 Z " fill="#6C3E1D" transform="translate(248,188)"/>
<path d="M0 0 C0.33 0 0.66 0 1 0 C1.12375 0.969375 1.2475 1.93875 1.375 2.9375 C1.684375 4.4534375 1.684375 4.4534375 2 6 C2.66 6.33 3.32 6.66 4 7 C1.525 8.485 1.525 8.485 -1 10 C-1.125 2.25 -1.125 2.25 0 0 Z " fill="#46784B" transform="translate(143,182)"/>
<path d="M0 0 C2 2 2 2 2.1953125 4.6015625 C2.17210937 5.59929687 2.14890625 6.59703125 2.125 7.625 C2.10695312 8.62789062 2.08890625 9.63078125 2.0703125 10.6640625 C2.03550781 11.82035156 2.03550781 11.82035156 2 13 C0.68 11.68 -0.64 10.36 -2 9 C-1.34 8.67 -0.68 8.34 0 8 C0 5.36 0 2.72 0 0 Z " fill="#528D33" transform="translate(130,162)"/>
<path d="M0 0 C3.91402949 1.26941497 5.79072873 2.51167694 8 6 C5.69 5.34 3.38 4.68 1 4 C0.67 2.68 0.34 1.36 0 0 Z " fill="#9D8144" transform="translate(227,106)"/>
<path d="M0 0 C3.63 0 7.26 0 11 0 C10.67 0.99 10.34 1.98 10 3 C8.5199159 2.88637738 7.04089926 2.75877092 5.5625 2.625 C4.73878906 2.55539063 3.91507813 2.48578125 3.06640625 2.4140625 C2.38449219 2.27742187 1.70257813 2.14078125 1 2 C0.67 1.34 0.34 0.68 0 0 Z " fill="#78B03D" transform="translate(182,206)"/>
<path d="M0 0 C2.25312014 2.92162832 3.93027102 5.43423672 5 9 C4.625 11.3125 4.625 11.3125 4 13 C1.99706653 9.99559979 1.50728374 8.29006055 0.875 4.8125 C0.70742187 3.91144531 0.53984375 3.01039063 0.3671875 2.08203125 C0.24601562 1.39496094 0.12484375 0.70789063 0 0 Z " fill="#749540" transform="translate(118,155)"/>
<path d="M0 0 C0.66 0 1.32 0 2 0 C1.46930939 3.82097239 0.50298434 6.06171403 -2 9 C-3 6 -3 6 -1.5625 2.8125 C-1.046875 1.884375 -0.53125 0.95625 0 0 Z " fill="#9B773E" transform="translate(111,141)"/>
<path d="M0 0 C0.433125 0.495 0.86625 0.99 1.3125 1.5 C2.99740483 3.33218192 2.99740483 3.33218192 6 3 C6 4.32 6 5.64 6 7 C4.125 6.875 4.125 6.875 2 6 C0.75 2.9375 0.75 2.9375 0 0 Z " fill="#6C9D30" transform="translate(126,154)"/>
<path d="M0 0 C4.67692308 1.47692308 4.67692308 1.47692308 6.3125 4.125 C6.539375 4.74375 6.76625 5.3625 7 6 C3.75728494 5.4409112 2.06942576 4.5867822 0 2 C0 1.34 0 0.68 0 0 Z " fill="#906F3C" transform="translate(225,120)"/>
<path d="M0 0 C1.98 0.495 1.98 0.495 4 1 C3.34 2.65 2.68 4.3 2 6 C1.01 5.34 0.02 4.68 -1 4 C-0.67 2.68 -0.34 1.36 0 0 Z " fill="#197332" transform="translate(141,205)"/>
<path d="M0 0 C1.32 0 2.64 0 4 0 C4 1.98 4 3.96 4 6 C2.68 5.34 1.36 4.68 0 4 C0 2.68 0 1.36 0 0 Z " fill="#539130" transform="translate(184,154)"/>
<path d="M0 0 C1.67542976 0.28604898 3.34385343 0.61781233 5 1 C4.360625 1.185625 3.72125 1.37125 3.0625 1.5625 C0.57873787 2.94246056 0.57873787 2.94246056 0.25 6.625 C0.1675 7.73875 0.085 8.8525 0 10 C-0.33 10 -0.66 10 -1 10 C-1.02689216 8.52093108 -1.04634621 7.04172517 -1.0625 5.5625 C-1.07410156 4.73878906 -1.08570312 3.91507813 -1.09765625 3.06640625 C-1 1 -1 1 0 0 Z " fill="#A5AC6D" transform="translate(116,141)"/>
<path d="M0 0 C0.99 0.33 1.98 0.66 3 1 C0.03 3.475 0.03 3.475 -3 6 C-3.33 5.01 -3.66 4.02 -4 3 C-2.1875 1.4375 -2.1875 1.4375 0 0 Z " fill="#82A345" transform="translate(200,207)"/>
<path d="M0 0 C0.99 0.66 1.98 1.32 3 2 C0.36 3.98 -2.28 5.96 -5 8 C-4.34 6.68 -3.68 5.36 -3 4 C-2.67 3.01 -2.34 2.02 -2 1 C-1.34 0.67 -0.68 0.34 0 0 Z " fill="#99A967" transform="translate(166,139)"/>
<path d="M0 0 C0 0.33 0 0.66 0 1 C-4.1196377 2.29243536 -7.66831683 3.26252625 -12 3 C-8.2391768 -0.7608232 -5.0273023 -0.25136512 0 0 Z " fill="#BD9343" transform="translate(168,96)"/>
</svg>
